<svg width="42" height="37" viewBox="0 0 42 37" fill="none" xmlns="http://www.w3.org/2000/svg">
<path fill-rule="evenodd" clip-rule="evenodd" d="M25.3532 0.837593C24.7799 0.605895 24.1949 0.369426 23.5808 0.341187C23.0062 1.23282 22.5847 2.23223 22.1712 3.21259C22.1224 3.32827 22.0737 3.44369 22.0249 3.55863C21.6198 4.51275 21.2279 5.47156 20.836 6.43037C20.5746 7.06996 20.3131 7.70955 20.0478 8.34775C19.9691 8.53699 19.8789 8.652 19.7899 8.76525C19.6698 8.91829 19.5522 9.06814 19.4692 9.39362C19.4629 9.41774 19.4563 9.4417 19.4496 9.46563C19.4442 9.48492 19.4388 9.50419 19.4337 9.52351C19.0435 9.58917 18.647 9.64404 18.2493 9.69905C17.5311 9.79841 16.8095 9.89824 16.1165 10.063C13.5345 10.6771 10.4624 12.0979 8.26511 13.5929L8.1986 13.5409C7.96826 13.3582 7.6654 13.0711 7.33299 12.7559C6.6017 12.0625 5.72737 11.2335 5.16739 11.0831L5.03124 11.1205C4.89142 11.3975 4.94262 11.8089 4.99243 12.2091C5.04672 12.6454 5.09935 13.0683 4.90109 13.2892C4.79405 13.3151 4.68458 13.3296 4.57561 13.3441C4.4504 13.3607 4.32585 13.3772 4.20641 13.4109C2.91823 13.7727 1.15615 14.3772 0.243164 15.3957C1.11455 15.8927 1.70596 16.3775 2.32474 17.1636C1.52734 17.9976 0.914123 19.7164 0.502274 20.8708C0.488849 20.9084 0.475638 20.9455 0.462641 20.9819C0.861739 21.1897 1.2672 21.3847 1.6727 21.5797C2.04365 21.7581 2.41463 21.9365 2.78078 22.1248C2.59665 23.917 3.15284 25.887 3.9765 27.4724C4.14498 27.7965 4.34111 28.1057 4.53715 28.4147C4.67798 28.6366 4.81876 28.8585 4.94922 29.0858C5.02584 29.2194 5.08027 29.382 5.13489 29.5451C5.20893 29.7661 5.2833 29.9882 5.41373 30.1406C5.72881 30.5085 6.1305 30.8346 6.51715 31.1485C6.62244 31.234 6.72661 31.3185 6.82762 31.4028C9.09464 33.2941 11.3527 34.5898 14.1862 35.4499C14.2567 35.4713 14.3271 35.4929 14.3974 35.5144C15.131 35.739 15.8538 35.9603 16.6287 35.99C17.0063 36.0045 17.3839 36.002 17.7613 35.9996C18.2732 35.9963 18.7851 35.993 19.2971 36.0318C19.712 36.0632 20.1348 36.1114 20.5605 36.16C21.4521 36.2617 22.3565 36.3649 23.2273 36.3179C23.7038 36.2922 24.1858 36.1673 24.6586 36.0447C24.832 35.9997 25.004 35.9551 25.1741 35.9158C26.9837 35.498 28.7791 34.9276 30.4098 34.0151C30.8621 33.762 31.2934 33.4799 31.7252 33.1976C31.9725 33.0358 32.22 32.874 32.4717 32.7174C32.757 32.5403 33.1117 32.3405 33.4828 32.1314C34.1961 31.7297 34.9702 31.2936 35.4295 30.9182C35.572 30.1686 35.9273 29.6755 36.3196 29.131C36.4498 28.9502 36.5842 28.7637 36.7162 28.5603C38.0139 26.5605 38.4322 24.4288 38.48 22.0893C38.5447 22.0585 38.6399 22.0165 38.7544 21.966C39.3441 21.7057 40.4453 21.2199 40.5295 20.8753C40.6415 20.4177 39.9422 17.9911 39.6289 17.5805C39.5519 17.4795 39.4647 17.3865 39.3769 17.2948L39.4593 17.2072C39.6818 16.9735 39.951 16.7707 40.2187 16.569C40.5349 16.3308 40.8491 16.094 41.082 15.8097C41.0699 15.6347 41.0291 15.5694 40.8988 15.4487C40.2576 14.8547 38.3771 14.1715 37.3656 13.804C37.2967 13.7789 37.2318 13.7553 37.1716 13.7334C37.1737 13.6341 37.1836 13.4976 37.1949 13.3409C37.2362 12.7707 37.2967 11.9328 37.076 11.6449C36.3929 11.6836 34.1838 13.0364 33.3522 13.5457C33.3011 13.577 33.2552 13.6051 33.2151 13.6295C32.3407 12.8499 31.397 12.4081 30.3658 11.9254C30.2771 11.8839 30.1877 11.842 30.0977 11.7997C29.8661 11.6906 29.6375 11.5746 29.4089 11.4586C29.0453 11.2742 28.6817 11.0897 28.3058 10.933C26.8451 10.3236 25.1234 9.86179 23.5612 9.6131C23.7112 8.87303 24.7829 3.90342 24.9901 3.62605C25.2875 3.62321 25.6608 3.78631 26.0153 3.94114C26.2158 4.02876 26.4104 4.11374 26.5816 4.1645C27.0251 4.29591 27.5198 4.41228 28.0243 4.53093C28.9226 4.74222 29.8518 4.96076 30.5771 5.28445L30.638 5.35683C30.8642 5.63085 31.0309 6.01906 31.202 6.41758C31.5289 7.17881 31.8719 7.97767 32.6764 8.09032C33.3356 8.18252 34.3695 7.57912 34.875 7.16729C35.1997 6.90295 36.8156 4.70257 37.004 4.29439C36.9547 4.10539 36.7563 3.9295 36.6094 3.79928L36.604 3.79453C36.3554 3.57407 36.0846 3.38172 35.8136 3.1892C35.5415 2.99591 35.2691 2.80244 35.0187 2.58017C34.9061 2.48027 34.7847 2.35112 34.6586 2.21704C34.4221 1.96554 34.1693 1.69665 33.9277 1.57068C33.8201 1.51447 33.7092 1.46857 33.5962 1.4254C33.009 1.6764 32.5595 2.07143 32.0994 2.47589C31.9243 2.62978 31.7476 2.78503 31.5613 2.93423C30.6097 2.81571 29.7118 2.45716 28.8191 2.10069C28.537 1.98803 28.2554 1.87558 27.9728 1.77098C27.629 1.64369 27.2813 1.52699 26.9337 1.4103C26.5619 1.2855 26.1902 1.16071 25.823 1.02296C25.6671 0.964471 25.5106 0.901212 25.3532 0.837593ZM23.7174 12.6082C22.889 12.5319 22.0596 12.5206 21.2293 12.5743C20.9441 12.591 20.6579 12.6045 20.3714 12.618C19.6607 12.6514 18.9483 12.6849 18.2445 12.7688C18.0054 12.7974 17.7552 12.8452 17.5027 12.8934C17.0951 12.9713 16.6814 13.0503 16.2985 13.0513C16.1195 13.0518 15.9441 12.9667 15.7805 12.8873C15.7518 12.8734 15.7235 12.8596 15.6956 12.8466C14.6536 12.8853 10.0048 15.4926 9.21402 16.305C9.08829 16.4341 8.98445 16.5832 8.88032 16.7328C8.77428 16.8851 8.66794 17.0378 8.53785 17.1703C8.31164 17.4005 8.05734 17.6116 7.8026 17.8231C7.45041 18.1154 7.09736 18.4085 6.81646 18.7539C6.04014 19.7087 5.25886 21.9184 5.33294 23.1573C5.37815 23.9145 5.64494 24.6182 5.91109 25.3202L5.92551 25.3582C6.72622 27.4706 7.20925 28.3754 8.96481 29.919C11.0422 31.7458 14.1931 33.0442 16.9008 33.4452C17.883 33.5907 18.8786 33.6005 19.8701 33.6102C19.9467 33.611 20.0233 33.6117 20.0999 33.6126C22.5291 33.7291 24.7865 33.2194 27.0878 32.5032C27.2076 32.4659 27.3278 32.4298 27.4479 32.3937C27.9394 32.2461 28.4297 32.0988 28.8919 31.8699C30.2627 31.1911 31.6885 30.1023 32.8194 29.0686C33.6916 28.2714 35.1892 26.5355 35.7661 25.5313L35.1795 25.1128C35.2113 24.7983 35.2435 24.5027 35.2741 24.2229C35.5717 21.4966 35.7056 20.2695 33.5828 17.6615C32.593 16.4455 31.3051 15.2949 29.9289 14.5279C29.6713 14.3844 29.405 14.2595 29.1388 14.1346C28.8998 14.0225 28.661 13.9105 28.4288 13.7851C28.2977 13.7144 28.1689 13.6299 28.0392 13.5448C27.8088 13.3937 27.5759 13.241 27.3235 13.1609C26.3582 12.8546 25.2499 12.7516 24.2149 12.6553C24.0468 12.6397 23.8807 12.6243 23.7174 12.6082Z" fill="#07151F"/>
<path d="M13.5451 17.6432C14.4428 17.5744 15.3399 17.7291 16.1447 18.1422C16.8062 18.482 17.436 19.0205 17.6577 19.7527C17.9203 20.6199 17.723 22.0442 17.2697 22.823C16.8533 23.5384 15.9744 24.1933 15.1821 24.4006C14.3497 24.5607 13.1069 24.3841 12.369 23.9604C11.7507 23.6055 11.2897 23.0549 11.1122 22.3589C10.8007 21.1364 11.1804 19.8754 11.7939 18.821C11.893 18.7664 11.9909 18.7091 12.0905 18.6557C12.6203 18.3716 13.0239 17.9362 13.5451 17.6432Z" fill="#07151F"/>
<path d="M26.0791 17.9105C26.7705 17.832 27.5473 17.8537 28.202 18.1004C28.9817 18.3943 29.5671 19.0529 29.8983 19.8042C30.2652 20.6357 30.2941 21.5407 29.9431 22.3825C29.5361 23.3583 28.6579 24.12 27.6878 24.51C27.3679 24.5761 27.0582 24.617 26.7315 24.6144C25.8226 24.6075 24.8161 24.314 24.1832 23.6357C23.678 23.0944 23.5695 22.3963 23.6034 21.6828C23.6446 20.8155 23.8004 19.665 24.5086 19.0821C24.8594 18.7934 25.2675 18.5864 25.6018 18.2745C25.7537 18.1326 25.9035 18.0215 26.0791 17.9105Z" fill="#07151F"/>
<path d="M27.843 26.552L28.0122 26.5999C28.0761 26.6748 28.1255 26.7034 28.1353 26.8069C28.1887 27.3723 27.0676 28.9396 26.6782 29.3886C25.7788 30.4257 22.9575 31.4514 21.6008 31.5246C21.2703 31.5425 21.0997 31.4895 20.8591 31.2647C20.7143 31.1292 20.5683 31.0071 20.4109 30.8866C19.7105 31.0536 19.0191 31.1267 18.3029 31.0188C16.8739 30.8034 15.1076 30.1558 14.2264 28.963C13.8878 28.4693 13.1083 27.5275 13.149 26.9263L13.2591 26.8501C14.2695 26.8239 15.2061 27.5738 16.0958 27.9626C16.558 28.1646 17.0545 28.3121 17.5414 28.4427C18.3186 28.6509 19.1971 28.7576 20.0003 28.8288C23.2416 29.1161 25.1265 28.1208 27.843 26.552Z" fill="#07151F"/>
</svg>
