<svg width="99" height="133" viewBox="0 0 99 133" fill="none" xmlns="http://www.w3.org/2000/svg">
<g clip-path="url(#clip0_2003_440)">
<g filter="url(#filter0_d_2003_440)">
<path d="M68.1113 14.6065L78.6782 0.599529L53.3485 17.0254L48.9025 28.0885L68.1113 14.6065Z" fill="url(#paint0_linear_2003_440)"/>
<path d="M68.1095 14.6082L78.6759 0.600515L83.3481 25.7139L73.5787 32.436L68.1095 14.6082Z" fill="url(#paint1_linear_2003_440)"/>
<path d="M84.1495 45.0103L95.5977 38.5766L83.3481 25.7123L73.5787 32.4345L84.1495 45.0103Z" fill="url(#paint2_linear_2003_440)"/>
<path d="M84.1494 45.0111L95.5977 38.5774L95.1287 79.1238L83.2234 72.5123L84.1494 45.0111Z" fill="url(#paint3_linear_2003_440)"/>
<path d="M84.1489 45.0101L73.5781 32.4342L75.7395 52.9174L83.2229 72.5112L84.1489 45.0101Z" fill="url(#paint4_linear_2003_440)"/>
<path d="M72.2433 92.293L79.3941 99.4432L95.128 79.1228L83.2227 72.5113L72.2433 92.293Z" fill="url(#paint5_linear_2003_440)"/>
<path d="M83.2244 72.5115L72.245 92.2931L42.6019 109.989L25.7505 107.809L75.741 52.9176L83.2244 72.5115Z" fill="url(#paint6_linear_2003_440)"/>
<path d="M72.2446 92.2929L79.3954 99.4431L47.8016 125.705L42.5986 109.988L72.2446 92.2929Z" fill="url(#paint7_linear_2003_440)"/>
<path d="M25.6965 107.713L23.1966 122.355L47.8022 125.705L42.6015 109.988L25.6965 107.713Z" fill="url(#paint8_linear_2003_440)"/>
<path d="M44.0965 26.7091L40.7165 17.5179L53.3464 17.0257L48.9003 28.0887L44.0965 26.7091Z" fill="url(#paint9_linear_2003_440)"/>
<path d="M44.0965 26.7093L40.7132 17.5175L3.78854 47.3037L13.3048 51.6078L44.0965 26.7093Z" fill="url(#paint10_linear_2003_440)"/>
<path d="M44.0976 26.7102L48.9015 28.0898L20.2729 79.3585L13.7637 77.0093L13.3059 51.6086L44.0976 26.7102Z" fill="url(#paint11_linear_2003_440)"/>
<path d="M68.111 14.6066L48.9022 28.0885L20.2735 79.3573L18.3645 89.3867L25.7548 107.809L34.2843 98.5203L75.7416 52.9175L73.5802 32.4344L68.111 14.6066Z" fill="url(#paint12_linear_2003_440)"/>
<path d="M73.5798 32.4371L75.7411 52.9194L75.7401 52.9194L83.2234 72.5124L72.244 92.2941L42.601 109.99L25.7496 107.811L25.7523 107.805L18.3647 89.3887L20.2731 79.3596L20.273 79.3587L13.7637 77.0094L13.306 51.6086L44.0975 26.7099L48.9019 28.0896L48.901 28.0906L68.111 14.6089L73.5798 32.4371Z" fill="url(#paint13_radial_2003_440)" fill-opacity="0.5"/>
<path d="M16.2894 52.249L15.5755 75.472L22.7768 78.0719L20.4099 88.6749L27.6148 105.459L41.9505 108.038L70.7818 90.3534L83.2189 72.5195L72.2451 92.2931L42.2776 109.989L25.7555 107.809L25.7556 107.81L25.7546 107.809L25.7507 107.809L25.7524 107.804L18.3658 89.3877L20.2742 79.3587L20.2741 79.3577L13.7648 77.0084L13.3071 51.6076L44.0986 26.709L16.2894 52.249Z" fill="url(#paint14_linear_2003_440)" fill-opacity="0.2"/>
<path d="M13.7634 77.0072L5.32471 77.653L3.78943 47.3024L13.3057 51.6065L13.7634 77.0072Z" fill="url(#paint15_linear_2003_440)"/>
<path d="M13.763 77.0085L5.32447 77.6544L11.5532 83.9282L20.1872 79.3957L13.763 77.0085Z" fill="url(#paint16_linear_2003_440)"/>
<path d="M20.273 79.3575L20.2718 79.3581L18.363 89.3866L9.52861 96.4416L11.5532 83.9274L20.2718 79.3581L20.272 79.3572L20.273 79.3575Z" fill="url(#paint17_linear_2003_440)"/>
<path d="M12.9388 122.016L25.7534 107.809L18.365 89.3874L9.53495 96.4433L12.9388 122.016Z" fill="url(#paint18_linear_2003_440)"/>
<path d="M12.9387 122.016L25.7533 107.81L23.3993 122.389L12.9387 122.016Z" fill="url(#paint19_linear_2003_440)"/>
</g>
</g>
<g clip-path="url(#clip1_2003_440)">
<g filter="url(#filter1_ddi_2003_440)">
<path fill-rule="evenodd" clip-rule="evenodd" d="M68.7789 50.4968C68.5304 49.9396 68.3185 48.3735 68.3705 44.7832C68.4524 39.123 59.6412 40.3423 54.5971 41.8213C55.7133 42.5265 56.9378 42.9976 58.0757 43.4354C59.4549 43.966 60.7068 44.4476 61.4838 45.2377C62.9468 48.8178 65.3526 50.2567 68.7789 50.4968ZM51.8616 40.5502C50.3272 40.1768 47.8281 40.3734 43.9939 42.061C41.9311 42.969 40.517 44.0917 39.5754 45.2808C48.5601 43.495 55.429 49.525 57.6653 53.2562C58.021 52.3162 58.6378 51.6095 59.1857 50.9817C60.2073 49.8111 60.9894 48.9149 59.3941 47.2928C58.1484 46.0262 56.7415 45.4259 55.4836 44.8892C53.5205 44.0516 51.9203 43.3688 51.8616 40.5502ZM39.1918 45.8067C37.654 48.1037 37.7387 50.563 38.2279 52.1583C41.8228 51.5701 45.5848 52.5929 47.7901 54.1049C49.1226 55.0184 50.3011 56.2351 50.8132 57.8374C51.0884 58.6984 51.221 59.8269 51.3514 60.9363C51.688 63.7998 52.0095 66.5355 54.7279 64.2108C56.0328 63.0949 56.9331 61.59 56.7745 59.5275C56.3544 54.0637 49.1391 46.8385 39.1918 45.8067ZM36.856 53.5219C33.8711 55.029 27.5931 58.8531 25.7501 65.0884C31.5126 60.7549 39.1146 57.1303 37.1944 62.3627C37.9737 63.3289 36.628 64.4524 34.7275 66.039C31.4329 68.7896 26.4709 72.9321 28.023 80.0601C28.023 80.0601 33.4761 72.0679 37.4838 75.6592C38.0212 76.0549 37.2467 76.7522 35.8945 77.9697C33.0475 80.533 27.6396 85.4021 26.5246 94.6161C31.5129 88.4238 39.4611 80.5469 41.5699 84.6735C43.6787 88.8001 35.2294 98.2354 35.2294 98.2354C35.2294 98.2354 50.4337 90.9861 61.5886 74.964C62.3648 76.8225 56.4706 90.0696 56.4706 90.0696C70.2765 77.8266 71.8324 68.3448 72.7858 62.5349C73.0087 61.1765 73.1987 60.0187 73.5046 59.0734C74.5379 55.8804 73.3619 53.6031 71.8332 52.18C68.9976 53.0661 66.6844 52.8732 64.8669 52.7217C62.4977 52.5241 60.9707 52.3968 60.2263 54.8211C59.1391 58.3622 60.8013 58.7099 62.8202 59.1323C64.6631 59.5179 66.8034 59.9656 67.4206 62.9615C61.7752 60.9719 61.0327 61.8028 59.1056 63.959C58.4775 64.6619 57.7235 65.5056 56.6328 66.4383C55.0382 67.802 53.132 68.6181 51.6759 69.008C51.3425 69.4547 50.9403 70.1013 50.6351 70.8397C50.2346 71.8082 50.065 72.7767 50.257 73.6061C50.9622 76.6531 49.6153 78.5426 48.0502 78.9843C47.8668 78.3345 47.995 77.8328 48.1228 77.3323C48.3308 76.518 48.5379 75.7071 47.4015 74.267C46.0221 72.519 46.7172 71.5457 47.3699 70.6316C47.5855 70.3298 47.7964 70.0344 47.9265 69.7198C47.9898 69.5667 48.0561 69.4165 48.1247 69.2696C47.9201 69.2642 47.7507 69.2626 47.5999 69.2612C46.8107 69.254 46.5296 69.2514 44.3556 68.7221C41.7661 68.0917 41.3132 62.558 41.4616 62.8833C46.6514 69.7709 50.3081 65.8848 48.0214 58.7297C47.7805 57.9759 47.1666 57.231 46.1328 56.5223C45.106 55.8183 43.7781 55.2294 42.3279 54.7542C40.43 54.1322 38.4339 53.7405 36.856 53.5219Z" fill="white"/>
</g>
</g>
<defs>
<filter id="filter0_d_2003_440" x="1.18822" y="0.599487" width="97.0099" height="130.306" filterUnits="userSpaceOnUse" color-interpolation-filters="sRGB">
<feFlood flood-opacity="0" result="BackgroundImageFix"/>
<feColorMatrix in="SourceAlpha" type="matrix" values="0 0 0 0 0 0 0 0 0 0 0 0 0 0 0 0 0 0 127 0" result="hardAlpha"/>
<feOffset dy="2.60035"/>
<feGaussianBlur stdDeviation="1.30018"/>
<feComposite in2="hardAlpha" operator="out"/>
<feColorMatrix type="matrix" values="0 0 0 0 0.216585 0 0 0 0 0.154565 0 0 0 0 0.0973153 0 0 0 0.25 0"/>
<feBlend mode="normal" in2="BackgroundImageFix" result="effect1_dropShadow_2003_440"/>
<feBlend mode="normal" in="SourceGraphic" in2="effect1_dropShadow_2003_440" result="shape"/>
</filter>
<filter id="filter1_ddi_2003_440" x="22.1002" y="36.7406" width="55.4449" height="65.1447" filterUnits="userSpaceOnUse" color-interpolation-filters="sRGB">
<feFlood flood-opacity="0" result="BackgroundImageFix"/>
<feColorMatrix in="SourceAlpha" type="matrix" values="0 0 0 0 0 0 0 0 0 0 0 0 0 0 0 0 0 0 127 0" result="hardAlpha"/>
<feOffset/>
<feGaussianBlur stdDeviation="1.82497"/>
<feComposite in2="hardAlpha" operator="out"/>
<feColorMatrix type="matrix" values="0 0 0 0 1 0 0 0 0 1 0 0 0 0 1 0 0 0 0.15 0"/>
<feBlend mode="normal" in2="BackgroundImageFix" result="effect1_dropShadow_2003_440"/>
<feColorMatrix in="SourceAlpha" type="matrix" values="0 0 0 0 0 0 0 0 0 0 0 0 0 0 0 0 0 0 127 0" result="hardAlpha"/>
<feOffset dy="-0.651774"/>
<feComposite in2="hardAlpha" operator="out"/>
<feColorMatrix type="matrix" values="0 0 0 0 1 0 0 0 0 1 0 0 0 0 1 0 0 0 1 0"/>
<feBlend mode="normal" in2="effect1_dropShadow_2003_440" result="effect2_dropShadow_2003_440"/>
<feBlend mode="normal" in="SourceGraphic" in2="effect2_dropShadow_2003_440" result="shape"/>
<feColorMatrix in="SourceAlpha" type="matrix" values="0 0 0 0 0 0 0 0 0 0 0 0 0 0 0 0 0 0 127 0" result="hardAlpha"/>
<feOffset/>
<feGaussianBlur stdDeviation="2.60709"/>
<feComposite in2="hardAlpha" operator="arithmetic" k2="-1" k3="1"/>
<feColorMatrix type="matrix" values="0 0 0 0 0.854902 0 0 0 0 0.278431 0 0 0 0 0.278431 0 0 0 1 0"/>
<feBlend mode="normal" in2="shape" result="effect3_innerShadow_2003_440"/>
</filter>
<linearGradient id="paint0_linear_2003_440" x1="57.7856" y1="-0.791672" x2="63.4516" y2="24.4605" gradientUnits="userSpaceOnUse">
<stop stop-color="#D69768"/>
<stop offset="1" stop-color="#AE534B"/>
</linearGradient>
<linearGradient id="paint1_linear_2003_440" x1="83.8332" y1="8.13587" x2="52.1378" y2="27.9909" gradientUnits="userSpaceOnUse">
<stop stop-color="#793C3C"/>
<stop offset="1" stop-color="#A34F48"/>
</linearGradient>
<linearGradient id="paint2_linear_2003_440" x1="84.1831" y1="24.9218" x2="85.8943" y2="43.345" gradientUnits="userSpaceOnUse">
<stop stop-color="#D69768"/>
<stop offset="1" stop-color="#AE534B"/>
</linearGradient>
<linearGradient id="paint3_linear_2003_440" x1="94.0117" y1="74.4424" x2="66.7466" y2="38.1962" gradientUnits="userSpaceOnUse">
<stop stop-color="#793C3C"/>
<stop offset="1" stop-color="#A34F48"/>
</linearGradient>
<linearGradient id="paint4_linear_2003_440" x1="85.6685" y1="34.0609" x2="32.3819" y2="123.709" gradientUnits="userSpaceOnUse">
<stop stop-color="#5E2E31"/>
<stop offset="1" stop-color="#BE4141"/>
</linearGradient>
<linearGradient id="paint5_linear_2003_440" x1="52.8514" y1="89.3838" x2="100.93" y2="83.4198" gradientUnits="userSpaceOnUse">
<stop stop-color="#BE6E58"/>
<stop offset="1" stop-color="#8F423B"/>
</linearGradient>
<linearGradient id="paint6_linear_2003_440" x1="57.7617" y1="60.3382" x2="67.2703" y2="93.0173" gradientUnits="userSpaceOnUse">
<stop stop-color="#793C3C"/>
<stop offset="1" stop-color="#A34F48"/>
</linearGradient>
<linearGradient id="paint7_linear_2003_440" x1="79.7264" y1="107.819" x2="54.8615" y2="48.0195" gradientUnits="userSpaceOnUse">
<stop stop-color="#5E2E31"/>
<stop offset="1" stop-color="#BE4141"/>
</linearGradient>
<linearGradient id="paint8_linear_2003_440" x1="37.1112" y1="100.53" x2="35.254" y2="148.255" gradientUnits="userSpaceOnUse">
<stop stop-color="#5E2E31"/>
<stop offset="1" stop-color="#BE4141"/>
</linearGradient>
<linearGradient id="paint9_linear_2003_440" x1="53.4734" y1="20.2176" x2="42.5254" y2="36.3066" gradientUnits="userSpaceOnUse">
<stop stop-color="#793C3C"/>
<stop offset="1" stop-color="#A34F48"/>
</linearGradient>
<linearGradient id="paint10_linear_2003_440" x1="23.2932" y1="19.9643" x2="24.4142" y2="48.7754" gradientUnits="userSpaceOnUse">
<stop stop-color="#D69768"/>
<stop offset="1" stop-color="#AE534B"/>
</linearGradient>
<linearGradient id="paint11_linear_2003_440" x1="59.7663" y1="31.9877" x2="-4.95534" y2="57.6252" gradientUnits="userSpaceOnUse">
<stop stop-color="#5E2E31"/>
<stop offset="1" stop-color="#C25A4E"/>
</linearGradient>
<linearGradient id="paint12_linear_2003_440" x1="55.9771" y1="19.652" x2="24.5442" y2="107.945" gradientUnits="userSpaceOnUse">
<stop stop-color="#743337"/>
<stop offset="1" stop-color="#D05F50"/>
</linearGradient>
<radialGradient id="paint13_radial_2003_440" cx="0" cy="0" r="1" gradientUnits="userSpaceOnUse" gradientTransform="translate(6.58053 123.149) rotate(-57.2672) scale(99.0632 62.9281)">
<stop stop-color="#F4CC66"/>
<stop offset="1" stop-color="#F4B066" stop-opacity="0"/>
</radialGradient>
<linearGradient id="paint14_linear_2003_440" x1="37.6843" y1="98.2846" x2="71.3809" y2="37.6628" gradientUnits="userSpaceOnUse">
<stop stop-color="#F8DD99"/>
<stop offset="1" stop-color="#F8DD99" stop-opacity="0"/>
</linearGradient>
<linearGradient id="paint15_linear_2003_440" x1="6.47158" y1="87.6004" x2="5.56259" y2="44.7578" gradientUnits="userSpaceOnUse">
<stop stop-color="#743337"/>
<stop offset="1" stop-color="#D05F50"/>
</linearGradient>
<linearGradient id="paint16_linear_2003_440" x1="11.7236" y1="77.9208" x2="-25.1622" y2="95.5522" gradientUnits="userSpaceOnUse">
<stop stop-color="#5E2E31"/>
<stop offset="1" stop-color="#BE4141"/>
</linearGradient>
<linearGradient id="paint17_linear_2003_440" x1="23.9884" y1="74.7914" x2="12.524" y2="98.0538" gradientUnits="userSpaceOnUse">
<stop stop-color="#6E2B2B"/>
<stop offset="1" stop-color="#A34F48"/>
</linearGradient>
<linearGradient id="paint18_linear_2003_440" x1="21.7709" y1="97.6438" x2="-16.2789" y2="137.96" gradientUnits="userSpaceOnUse">
<stop stop-color="#5E2E31"/>
<stop offset="1" stop-color="#BE4141"/>
</linearGradient>
<linearGradient id="paint19_linear_2003_440" x1="26.8934" y1="102.725" x2="28.0725" y2="128.882" gradientUnits="userSpaceOnUse">
<stop stop-color="#793C3C"/>
<stop offset="1" stop-color="#A34F48"/>
</linearGradient>
<clipPath id="clip0_2003_440">
<rect width="98" height="133" fill="white" transform="translate(0.638672)"/>
</clipPath>
<clipPath id="clip1_2003_440">
<rect width="65" height="65" fill="white" transform="translate(19 36)"/>
</clipPath>
</defs>
</svg>
