<svg width="99" height="133" viewBox="0 0 99 133" fill="none" xmlns="http://www.w3.org/2000/svg">
<g clip-path="url(#clip0_2003_441)">
<g filter="url(#filter0_d_2003_441)">
<path d="M67.6514 14.6065L78.2182 0.599529L52.8886 17.0254L48.4425 28.0885L67.6514 14.6065Z" fill="url(#paint0_linear_2003_441)"/>
<path d="M67.6496 14.6082L78.2159 0.600515L82.8881 25.7139L73.1187 32.436L67.6496 14.6082Z" fill="url(#paint1_linear_2003_441)"/>
<path d="M83.6895 45.0103L95.1378 38.5766L82.8881 25.7123L73.1187 32.4345L83.6895 45.0103Z" fill="url(#paint2_linear_2003_441)"/>
<path d="M83.6895 45.0111L95.1377 38.5774L94.6687 79.1238L82.7634 72.5123L83.6895 45.0111Z" fill="url(#paint3_linear_2003_441)"/>
<path d="M83.689 45.0101L73.1182 32.4342L75.2796 52.9174L82.763 72.5112L83.689 45.0101Z" fill="url(#paint4_linear_2003_441)"/>
<path d="M71.7833 92.293L78.9341 99.4432L94.668 79.1228L82.7627 72.5113L71.7833 92.293Z" fill="url(#paint5_linear_2003_441)"/>
<path d="M82.7644 72.5115L71.785 92.2931L42.1419 109.989L25.2905 107.809L75.281 52.9176L82.7644 72.5115Z" fill="url(#paint6_linear_2003_441)"/>
<path d="M71.7846 92.2929L78.9354 99.4431L47.3417 125.705L42.1386 109.988L71.7846 92.2929Z" fill="url(#paint7_linear_2003_441)"/>
<path d="M25.2365 107.713L22.7367 122.355L47.3422 125.705L42.1415 109.988L25.2365 107.713Z" fill="url(#paint8_linear_2003_441)"/>
<path d="M43.6365 26.7091L40.2566 17.5179L52.8864 17.0257L48.4404 28.0887L43.6365 26.7091Z" fill="url(#paint9_linear_2003_441)"/>
<path d="M43.6365 26.7093L40.2532 17.5175L3.32857 47.3037L12.8448 51.6078L43.6365 26.7093Z" fill="url(#paint10_linear_2003_441)"/>
<path d="M43.6377 26.7102L48.4415 28.0898L19.8129 79.3585L13.3037 77.0093L12.846 51.6086L43.6377 26.7102Z" fill="url(#paint11_linear_2003_441)"/>
<path d="M67.6511 14.6066L48.4422 28.0885L19.8136 79.3573L17.9045 89.3867L25.2949 107.809L33.8243 98.5203L75.2816 52.9175L73.1202 32.4344L67.6511 14.6066Z" fill="url(#paint12_linear_2003_441)"/>
<path d="M73.1199 32.4371L75.2811 52.9194L75.2802 52.9194L82.7634 72.5124L71.784 92.2941L42.141 109.99L25.2896 107.811L25.2923 107.805L17.9047 89.3887L19.8131 79.3596L19.8131 79.3587L13.3037 77.0094L12.846 51.6086L43.6376 26.7099L48.4419 28.0896L48.441 28.0906L67.6511 14.6089L73.1199 32.4371Z" fill="url(#paint13_radial_2003_441)" fill-opacity="0.5"/>
<path d="M15.8294 52.249L15.1156 75.472L22.3168 78.0719L19.95 88.6749L27.1549 105.459L41.4905 108.038L70.3219 90.3534L82.759 72.5195L71.7851 92.2931L41.8177 109.989L25.2956 107.809L25.2956 107.81L25.2946 107.809L25.2907 107.809L25.2925 107.804L17.9058 89.3877L19.8142 79.3587L19.8142 79.3577L13.3048 77.0084L12.8471 51.6076L43.6387 26.709L15.8294 52.249Z" fill="url(#paint14_linear_2003_441)" fill-opacity="0.2"/>
<path d="M13.3034 77.0072L4.86475 77.653L3.32947 47.3024L12.8457 51.6065L13.3034 77.0072Z" fill="url(#paint15_linear_2003_441)"/>
<path d="M13.303 77.0085L4.86451 77.6544L11.0933 83.9282L19.7272 79.3957L13.303 77.0085Z" fill="url(#paint16_linear_2003_441)"/>
<path d="M19.8131 79.3575L19.8119 79.3581L17.903 89.3866L9.06865 96.4416L11.0933 83.9274L19.8119 79.3581L19.812 79.3572L19.8131 79.3575Z" fill="url(#paint17_linear_2003_441)"/>
<path d="M12.4789 122.016L25.2935 107.809L17.905 89.3874L9.07499 96.4433L12.4789 122.016Z" fill="url(#paint18_linear_2003_441)"/>
<path d="M12.4787 122.016L25.2933 107.81L22.9394 122.389L12.4787 122.016Z" fill="url(#paint19_linear_2003_441)"/>
</g>
</g>
<g clip-path="url(#clip1_2003_441)">
<g filter="url(#filter1_ddi_2003_441)">
<path fill-rule="evenodd" clip-rule="evenodd" d="M53.4522 41.6259L58.7012 43.4407L50.3396 50.8046L40.9701 49.9053C37.63 55.036 31.2017 63.7366 31.2017 63.7366C31.4816 63.7905 32.2471 63.8211 33.4361 63.8686C36.9469 64.009 44.1503 64.297 53.4514 65.7683L32.5689 89.0687L31.1509 88.7577L22.1847 70.1628L28.4287 76.5473L30.2192 71.7098L34.6988 75.1384L45.5856 67.9461L25.2659 66.2429L38.6201 46.6558L49.3302 47.3376L53.1876 43.3538L49.8333 40.7834L57.3559 36.2222L53.4522 41.6259ZM62.0613 33.3692L57.8419 40.9984L63.9633 42.4507L52.9077 53.4051L42.8079 53.3678L41.1231 59.377L61.6845 61.7964C60.3471 64.673 58.9727 67.5406 57.597 70.4108C54.1225 77.6598 50.6402 84.9253 47.7271 92.3937L48.0358 92.4614L67.2837 85.0851L62.5781 84.473L76.083 73.9059L60.9025 78.964L79.8777 63.9408L62.5781 72.7015L66.3925 59.7636L58.1632 59.1408L45.0943 57.135L45.5856 55.2914L54.7818 55.2914L68.1706 41.1819L61.5324 39.4672L62.5774 33.0563L62.0613 33.3692Z" fill="white"/>
</g>
</g>
<defs>
<filter id="filter0_d_2003_441" x="0.728262" y="0.599487" width="97.0099" height="130.306" filterUnits="userSpaceOnUse" color-interpolation-filters="sRGB">
<feFlood flood-opacity="0" result="BackgroundImageFix"/>
<feColorMatrix in="SourceAlpha" type="matrix" values="0 0 0 0 0 0 0 0 0 0 0 0 0 0 0 0 0 0 127 0" result="hardAlpha"/>
<feOffset dy="2.60035"/>
<feGaussianBlur stdDeviation="1.30018"/>
<feComposite in2="hardAlpha" operator="out"/>
<feColorMatrix type="matrix" values="0 0 0 0 0.216585 0 0 0 0 0.154565 0 0 0 0 0.0973153 0 0 0 0.25 0"/>
<feBlend mode="normal" in2="BackgroundImageFix" result="effect1_dropShadow_2003_441"/>
<feBlend mode="normal" in="SourceGraphic" in2="effect1_dropShadow_2003_441" result="shape"/>
</filter>
<filter id="filter1_ddi_2003_441" x="18.7569" y="29.6285" width="64.5486" height="66.2607" filterUnits="userSpaceOnUse" color-interpolation-filters="sRGB">
<feFlood flood-opacity="0" result="BackgroundImageFix"/>
<feColorMatrix in="SourceAlpha" type="matrix" values="0 0 0 0 0 0 0 0 0 0 0 0 0 0 0 0 0 0 127 0" result="hardAlpha"/>
<feOffset/>
<feGaussianBlur stdDeviation="1.7139"/>
<feComposite in2="hardAlpha" operator="out"/>
<feColorMatrix type="matrix" values="0 0 0 0 1 0 0 0 0 1 0 0 0 0 1 0 0 0 0.15 0"/>
<feBlend mode="normal" in2="BackgroundImageFix" result="effect1_dropShadow_2003_441"/>
<feColorMatrix in="SourceAlpha" type="matrix" values="0 0 0 0 0 0 0 0 0 0 0 0 0 0 0 0 0 0 127 0" result="hardAlpha"/>
<feOffset dy="-0.612106"/>
<feComposite in2="hardAlpha" operator="out"/>
<feColorMatrix type="matrix" values="0 0 0 0 1 0 0 0 0 1 0 0 0 0 1 0 0 0 1 0"/>
<feBlend mode="normal" in2="effect1_dropShadow_2003_441" result="effect2_dropShadow_2003_441"/>
<feBlend mode="normal" in="SourceGraphic" in2="effect2_dropShadow_2003_441" result="shape"/>
<feColorMatrix in="SourceAlpha" type="matrix" values="0 0 0 0 0 0 0 0 0 0 0 0 0 0 0 0 0 0 127 0" result="hardAlpha"/>
<feOffset/>
<feGaussianBlur stdDeviation="2.44842"/>
<feComposite in2="hardAlpha" operator="arithmetic" k2="-1" k3="1"/>
<feColorMatrix type="matrix" values="0 0 0 0 0.278431 0 0 0 0 0.854902 0 0 0 0 0.578196 0 0 0 1 0"/>
<feBlend mode="normal" in2="shape" result="effect3_innerShadow_2003_441"/>
</filter>
<linearGradient id="paint0_linear_2003_441" x1="62.8839" y1="2.60656" x2="63.7778" y2="25.5782" gradientUnits="userSpaceOnUse">
<stop stop-color="#84BE70"/>
<stop offset="1" stop-color="#3E8B58"/>
</linearGradient>
<linearGradient id="paint1_linear_2003_441" x1="80.0954" y1="7.71322" x2="66.6787" y2="27.5465" gradientUnits="userSpaceOnUse">
<stop stop-color="#247B5E"/>
<stop offset="1" stop-color="#377E4B"/>
</linearGradient>
<linearGradient id="paint2_linear_2003_441" x1="83.7934" y1="26.7125" x2="84.4496" y2="43.576" gradientUnits="userSpaceOnUse">
<stop stop-color="#84BE70"/>
<stop offset="1" stop-color="#3E8B58"/>
</linearGradient>
<linearGradient id="paint3_linear_2003_441" x1="93.5517" y1="74.4424" x2="66.2867" y2="38.1962" gradientUnits="userSpaceOnUse">
<stop stop-color="#247B5E"/>
<stop offset="1" stop-color="#377E4B"/>
</linearGradient>
<linearGradient id="paint4_linear_2003_441" x1="82.1189" y1="41.272" x2="58.6574" y2="57.4021" gradientUnits="userSpaceOnUse">
<stop stop-color="#185B45"/>
<stop offset="1" stop-color="#2B6C3D"/>
</linearGradient>
<linearGradient id="paint5_linear_2003_441" x1="97.5953" y1="100.463" x2="77.1786" y2="75.3797" gradientUnits="userSpaceOnUse">
<stop stop-color="#5CAF65"/>
<stop offset="1" stop-color="#307D53"/>
</linearGradient>
<linearGradient id="paint6_linear_2003_441" x1="69.0121" y1="103.38" x2="46.2621" y2="56.7133" gradientUnits="userSpaceOnUse">
<stop stop-color="#3B8850"/>
<stop offset="1" stop-color="#1B5E44"/>
</linearGradient>
<linearGradient id="paint7_linear_2003_441" x1="63.7623" y1="116.213" x2="64.3457" y2="78.2968" gradientUnits="userSpaceOnUse">
<stop stop-color="#185B45"/>
<stop offset="1" stop-color="#2B6C3D"/>
</linearGradient>
<linearGradient id="paint8_linear_2003_441" x1="39.262" y1="107.463" x2="39.262" y2="133.713" gradientUnits="userSpaceOnUse">
<stop stop-color="#1D6043"/>
<stop offset="1" stop-color="#377E4B"/>
</linearGradient>
<linearGradient id="paint9_linear_2003_441" x1="49.7621" y1="13.5465" x2="46.8454" y2="34.5466" gradientUnits="userSpaceOnUse">
<stop stop-color="#247B5E"/>
<stop offset="1" stop-color="#377E4B"/>
</linearGradient>
<linearGradient id="paint10_linear_2003_441" x1="22.8332" y1="19.9643" x2="23.9543" y2="48.7754" gradientUnits="userSpaceOnUse">
<stop stop-color="#84BE70"/>
<stop offset="1" stop-color="#3E8B58"/>
</linearGradient>
<linearGradient id="paint11_linear_2003_441" x1="4.84542" y1="63.1299" x2="53.2621" y2="35.1299" gradientUnits="userSpaceOnUse">
<stop stop-color="#3B8850"/>
<stop offset="1" stop-color="#1B5E44"/>
</linearGradient>
<linearGradient id="paint12_linear_2003_441" x1="21.7623" y1="103.963" x2="66.679" y2="18.7965" gradientUnits="userSpaceOnUse">
<stop stop-color="#61AA6F"/>
<stop offset="1" stop-color="#1B5E44"/>
</linearGradient>
<radialGradient id="paint13_radial_2003_441" cx="0" cy="0" r="1" gradientUnits="userSpaceOnUse" gradientTransform="translate(6.12057 123.149) rotate(-57.2672) scale(99.0632 62.9281)">
<stop stop-color="#B0DA86"/>
<stop offset="1" stop-color="#B0DA86" stop-opacity="0"/>
</radialGradient>
<linearGradient id="paint14_linear_2003_441" x1="37.2244" y1="98.2846" x2="70.9209" y2="37.6628" gradientUnits="userSpaceOnUse">
<stop stop-color="#EFFBCB"/>
<stop offset="1" stop-color="#EFFBCB" stop-opacity="0"/>
</linearGradient>
<linearGradient id="paint15_linear_2003_441" x1="7.17867" y1="36.2965" x2="8.34534" y2="79.4632" gradientUnits="userSpaceOnUse">
<stop stop-color="#5CAF65"/>
<stop offset="1" stop-color="#307D53"/>
</linearGradient>
<linearGradient id="paint16_linear_2003_441" x1="14.762" y1="78.8799" x2="6.4795" y2="101.073" gradientUnits="userSpaceOnUse">
<stop stop-color="#185B45"/>
<stop offset="1" stop-color="#2B6C3D"/>
</linearGradient>
<linearGradient id="paint17_linear_2003_441" x1="18.3503" y1="83.1995" x2="12.5627" y2="95.9335" gradientUnits="userSpaceOnUse">
<stop stop-color="#247B5E"/>
<stop offset="1" stop-color="#377E4B"/>
</linearGradient>
<linearGradient id="paint18_linear_2003_441" x1="18.8454" y1="96.9633" x2="8.34538" y2="126.713" gradientUnits="userSpaceOnUse">
<stop stop-color="#185B45"/>
<stop offset="1" stop-color="#2B6C3D"/>
</linearGradient>
<linearGradient id="paint19_linear_2003_441" x1="21.9533" y1="103.15" x2="16.8814" y2="130.639" gradientUnits="userSpaceOnUse">
<stop stop-color="#247B5E"/>
<stop offset="1" stop-color="#377E4B"/>
</linearGradient>
<clipPath id="clip0_2003_441">
<rect width="98" height="133" fill="white" transform="translate(0.178711)"/>
</clipPath>
<clipPath id="clip1_2003_441">
<rect width="68.5558" height="68.5558" fill="white" transform="translate(17.4443 32.4441)"/>
</clipPath>
</defs>
</svg>
