<svg width="99" height="133" viewBox="0 0 99 133" fill="none" xmlns="http://www.w3.org/2000/svg">
<g clip-path="url(#clip0_2003_392)">
<g filter="url(#filter0_d_2003_392)">
<path d="M67.4923 14.6065L78.0591 0.599529L52.7294 17.0254L48.2834 28.0885L67.4923 14.6065Z" fill="url(#paint0_linear_2003_392)"/>
<path d="M67.4904 14.6082L78.0567 0.600515L82.7289 25.7139L72.9595 32.436L67.4904 14.6082Z" fill="url(#paint1_linear_2003_392)"/>
<path d="M83.5304 45.0103L94.9786 38.5766L82.729 25.7123L72.9596 32.4345L83.5304 45.0103Z" fill="url(#paint2_linear_2003_392)"/>
<path d="M83.5302 45.0111L94.9785 38.5774L94.5095 79.1238L82.6042 72.5123L83.5302 45.0111Z" fill="url(#paint3_linear_2003_392)"/>
<path d="M83.5298 45.0101L72.959 32.4342L75.1204 52.9174L82.6038 72.5112L83.5298 45.0101Z" fill="url(#paint4_linear_2003_392)"/>
<path d="M71.6241 92.293L78.7749 99.4432L94.5088 79.1228L82.6035 72.5113L71.6241 92.293Z" fill="url(#paint5_linear_2003_392)"/>
<path d="M82.6052 72.5115L71.6258 92.2931L41.9827 109.989L25.1313 107.809L75.1218 52.9176L82.6052 72.5115Z" fill="url(#paint6_linear_2003_392)"/>
<path d="M71.6254 92.2929L78.7762 99.4431L47.1824 125.705L41.9794 109.988L71.6254 92.2929Z" fill="url(#paint7_linear_2003_392)"/>
<path d="M25.0773 107.713L22.5775 122.355L47.183 125.705L41.9823 109.988L25.0773 107.713Z" fill="url(#paint8_linear_2003_392)"/>
<path d="M43.4773 26.7091L40.0973 17.5179L52.7272 17.0257L48.2811 28.0887L43.4773 26.7091Z" fill="url(#paint9_linear_2003_392)"/>
<path d="M43.4774 26.7093L40.0941 17.5175L3.16946 47.3037L12.6857 51.6078L43.4774 26.7093Z" fill="url(#paint10_linear_2003_392)"/>
<path d="M43.4784 26.7102L48.2823 28.0898L19.6537 79.3585L13.1445 77.0093L12.6867 51.6086L43.4784 26.7102Z" fill="url(#paint11_linear_2003_392)"/>
<path d="M67.4919 14.6066L48.283 28.0885L19.6544 79.3573L17.7454 89.3867L25.1357 107.809L33.6652 98.5203L75.1224 52.9175L72.961 32.4344L67.4919 14.6066Z" fill="url(#paint12_linear_2003_392)"/>
<path d="M72.9606 32.4371L75.1219 52.9194L75.1209 52.9194L82.6042 72.5124L71.6248 92.2941L41.9818 109.99L25.1304 107.811L25.1331 107.805L17.7455 89.3887L19.6539 79.3596L19.6538 79.3587L13.1445 77.0094L12.6868 51.6086L43.4783 26.7099L48.2827 28.0896L48.2818 28.0906L67.4918 14.6089L72.9606 32.4371Z" fill="url(#paint13_radial_2003_392)" fill-opacity="0.5"/>
<path d="M15.6702 52.249L14.9574 75.472L22.1577 78.0719L19.7917 88.6749L26.9957 105.459L41.3314 108.038L70.1627 90.3534L82.5998 72.5195L71.6259 92.2931L41.6585 109.989L25.1364 107.809L25.1364 107.81L25.1354 107.809L25.1315 107.809L25.1333 107.804L17.7466 89.3877L19.655 79.3587L19.655 79.3577L13.1456 77.0084L12.688 51.6076L43.4795 26.709L15.6702 52.249Z" fill="url(#paint14_linear_2003_392)" fill-opacity="0.2"/>
<path d="M13.1443 77.0072L4.70563 77.653L3.17035 47.3024L12.6866 51.6065L13.1443 77.0072Z" fill="url(#paint15_linear_2003_392)"/>
<path d="M13.1439 77.0085L4.70539 77.6544L10.9342 83.9282L19.5681 79.3957L13.1439 77.0085Z" fill="url(#paint16_linear_2003_392)"/>
<path d="M19.6539 79.3575L19.6527 79.3581L17.7438 89.3866L8.90947 96.4416L10.9341 83.9274L19.6527 79.3581L19.6529 79.3572L19.6539 79.3575Z" fill="url(#paint17_linear_2003_392)"/>
<path d="M12.3197 122.016L25.1343 107.809L17.7458 89.3874L8.91581 96.4433L12.3197 122.016Z" fill="url(#paint18_linear_2003_392)"/>
<path d="M12.3196 122.016L25.1342 107.81L22.7802 122.389L12.3196 122.016Z" fill="url(#paint19_linear_2003_392)"/>
</g>
</g>
<g filter="url(#filter1_ddi_2003_392)">
<path fill-rule="evenodd" clip-rule="evenodd" d="M33.4972 76.2402C30.8397 76.2402 28.8371 75.7225 26.7676 74.1696C24.698 72.6166 24.5777 41.0537 49.0268 40.5222C73.4759 39.9907 76.8417 72.6357 70.7686 74.1696C69.3212 74.1696 68.4048 74.3156 67.5453 74.4527C66.7862 74.5737 66.0714 74.6876 65.0743 74.6876C64.0502 74.6876 63.1718 77.0335 62.1314 79.8123C61.0121 82.8018 59.7051 86.2924 57.8271 87.9021C54.2035 91.0081 41.5528 92.9664 40.3191 91.2494C39.6031 90.253 39.073 89.1121 38.6773 87.9021C38.3768 86.9832 38.0882 86.0757 37.8088 85.1971L37.8087 85.1969C36.2394 80.2624 34.9602 76.2402 33.4972 76.2402ZM61.4499 61.7458C63.2481 61.7458 70.7647 68.4321 62.212 71.0637C55.4825 73.1344 52.6927 65.0517 54.4479 61.7458C55.6668 59.4499 57.7025 60.3429 59.4349 61.1029C60.197 61.4372 60.9005 61.7458 61.4499 61.7458ZM45.9209 61.2282C48.5089 63.1044 45.6385 68.0834 43.8495 70.0283C40.2574 73.9336 33.6282 68.932 34.0154 66.4047C34.4025 63.8773 43.333 59.3521 45.9209 61.2282ZM49.6427 72.7269C45.2242 78.6395 46.1044 80.6085 51.1053 79.9479C55.1966 79.4075 53.0888 76.8947 50.9808 74.3816C50.5121 73.8228 50.0433 73.264 49.6427 72.7269ZM40.1304 58.0905L45.853 57.9614L49.1985 53.4283L54.8458 57.7585L59.7509 57.6478C59.7509 57.6478 53.4551 52.2367 53.3737 51.0678C53.2924 49.8989 58.6305 44.2438 58.6305 44.2438L52.9078 44.3729L48.938 49.685L44.7326 44.5574L39.8275 44.6681C39.855 45.8865 41.2197 46.988 42.5692 48.0772C43.9488 49.1907 45.3124 50.2913 45.2151 51.4909C45.0818 53.1346 40.9835 57.2764 40.1304 58.0905Z" fill="white"/>
</g>
<defs>
<filter id="filter0_d_2003_392" x="0.569082" y="0.599487" width="97.0099" height="130.306" filterUnits="userSpaceOnUse" color-interpolation-filters="sRGB">
<feFlood flood-opacity="0" result="BackgroundImageFix"/>
<feColorMatrix in="SourceAlpha" type="matrix" values="0 0 0 0 0 0 0 0 0 0 0 0 0 0 0 0 0 0 127 0" result="hardAlpha"/>
<feOffset dy="2.60035"/>
<feGaussianBlur stdDeviation="1.30018"/>
<feComposite in2="hardAlpha" operator="out"/>
<feColorMatrix type="matrix" values="0 0 0 0 0.216585 0 0 0 0 0.154565 0 0 0 0 0.0973153 0 0 0 0.25 0"/>
<feBlend mode="normal" in2="BackgroundImageFix" result="effect1_dropShadow_2003_392"/>
<feBlend mode="normal" in="SourceGraphic" in2="effect1_dropShadow_2003_392" result="shape"/>
</filter>
<filter id="filter1_ddi_2003_392" x="22.4963" y="37.088" width="54.3268" height="58.2277" filterUnits="userSpaceOnUse" color-interpolation-filters="sRGB">
<feFlood flood-opacity="0" result="BackgroundImageFix"/>
<feColorMatrix in="SourceAlpha" type="matrix" values="0 0 0 0 0 0 0 0 0 0 0 0 0 0 0 0 0 0 127 0" result="hardAlpha"/>
<feOffset/>
<feGaussianBlur stdDeviation="1.7139"/>
<feComposite in2="hardAlpha" operator="out"/>
<feColorMatrix type="matrix" values="0 0 0 0 1 0 0 0 0 1 0 0 0 0 1 0 0 0 0.15 0"/>
<feBlend mode="normal" in2="BackgroundImageFix" result="effect1_dropShadow_2003_392"/>
<feColorMatrix in="SourceAlpha" type="matrix" values="0 0 0 0 0 0 0 0 0 0 0 0 0 0 0 0 0 0 127 0" result="hardAlpha"/>
<feOffset dy="-0.612106"/>
<feComposite in2="hardAlpha" operator="out"/>
<feColorMatrix type="matrix" values="0 0 0 0 1 0 0 0 0 1 0 0 0 0 1 0 0 0 1 0"/>
<feBlend mode="normal" in2="effect1_dropShadow_2003_392" result="effect2_dropShadow_2003_392"/>
<feBlend mode="normal" in="SourceGraphic" in2="effect2_dropShadow_2003_392" result="shape"/>
<feColorMatrix in="SourceAlpha" type="matrix" values="0 0 0 0 0 0 0 0 0 0 0 0 0 0 0 0 0 0 127 0" result="hardAlpha"/>
<feOffset/>
<feGaussianBlur stdDeviation="2.44842"/>
<feComposite in2="hardAlpha" operator="arithmetic" k2="-1" k3="1"/>
<feColorMatrix type="matrix" values="0 0 0 0 0.854902 0 0 0 0 0.278431 0 0 0 0 0.278431 0 0 0 1 0"/>
<feBlend mode="normal" in2="shape" result="effect3_innerShadow_2003_392"/>
</filter>
<linearGradient id="paint0_linear_2003_392" x1="57.1665" y1="-0.791672" x2="62.8325" y2="24.4605" gradientUnits="userSpaceOnUse">
<stop stop-color="#D69768"/>
<stop offset="1" stop-color="#AE534B"/>
</linearGradient>
<linearGradient id="paint1_linear_2003_392" x1="83.2141" y1="8.13587" x2="51.5187" y2="27.9909" gradientUnits="userSpaceOnUse">
<stop stop-color="#793C3C"/>
<stop offset="1" stop-color="#A34F48"/>
</linearGradient>
<linearGradient id="paint2_linear_2003_392" x1="83.564" y1="24.9218" x2="85.2752" y2="43.345" gradientUnits="userSpaceOnUse">
<stop stop-color="#D69768"/>
<stop offset="1" stop-color="#AE534B"/>
</linearGradient>
<linearGradient id="paint3_linear_2003_392" x1="93.3925" y1="74.4424" x2="66.1274" y2="38.1962" gradientUnits="userSpaceOnUse">
<stop stop-color="#793C3C"/>
<stop offset="1" stop-color="#A34F48"/>
</linearGradient>
<linearGradient id="paint4_linear_2003_392" x1="85.0493" y1="34.0609" x2="31.7628" y2="123.709" gradientUnits="userSpaceOnUse">
<stop stop-color="#5E2E31"/>
<stop offset="1" stop-color="#BE4141"/>
</linearGradient>
<linearGradient id="paint5_linear_2003_392" x1="52.2322" y1="89.3838" x2="100.31" y2="83.4198" gradientUnits="userSpaceOnUse">
<stop stop-color="#BE6E58"/>
<stop offset="1" stop-color="#8F423B"/>
</linearGradient>
<linearGradient id="paint6_linear_2003_392" x1="57.1425" y1="60.3382" x2="66.6511" y2="93.0173" gradientUnits="userSpaceOnUse">
<stop stop-color="#793C3C"/>
<stop offset="1" stop-color="#A34F48"/>
</linearGradient>
<linearGradient id="paint7_linear_2003_392" x1="79.1072" y1="107.819" x2="54.2423" y2="48.0195" gradientUnits="userSpaceOnUse">
<stop stop-color="#5E2E31"/>
<stop offset="1" stop-color="#BE4141"/>
</linearGradient>
<linearGradient id="paint8_linear_2003_392" x1="36.4921" y1="100.53" x2="34.6348" y2="148.255" gradientUnits="userSpaceOnUse">
<stop stop-color="#5E2E31"/>
<stop offset="1" stop-color="#BE4141"/>
</linearGradient>
<linearGradient id="paint9_linear_2003_392" x1="52.8542" y1="20.2176" x2="41.9062" y2="36.3066" gradientUnits="userSpaceOnUse">
<stop stop-color="#793C3C"/>
<stop offset="1" stop-color="#A34F48"/>
</linearGradient>
<linearGradient id="paint10_linear_2003_392" x1="22.6741" y1="19.9643" x2="23.7951" y2="48.7754" gradientUnits="userSpaceOnUse">
<stop stop-color="#D69768"/>
<stop offset="1" stop-color="#AE534B"/>
</linearGradient>
<linearGradient id="paint11_linear_2003_392" x1="59.1471" y1="31.9877" x2="-5.57454" y2="57.6252" gradientUnits="userSpaceOnUse">
<stop stop-color="#5E2E31"/>
<stop offset="1" stop-color="#C25A4E"/>
</linearGradient>
<linearGradient id="paint12_linear_2003_392" x1="55.358" y1="19.652" x2="23.9251" y2="107.945" gradientUnits="userSpaceOnUse">
<stop stop-color="#743337"/>
<stop offset="1" stop-color="#D05F50"/>
</linearGradient>
<radialGradient id="paint13_radial_2003_392" cx="0" cy="0" r="1" gradientUnits="userSpaceOnUse" gradientTransform="translate(5.96133 123.149) rotate(-57.2672) scale(99.0632 62.9281)">
<stop stop-color="#F4CC66"/>
<stop offset="1" stop-color="#F4B066" stop-opacity="0"/>
</radialGradient>
<linearGradient id="paint14_linear_2003_392" x1="37.0652" y1="98.2846" x2="70.7617" y2="37.6628" gradientUnits="userSpaceOnUse">
<stop stop-color="#F8DD99"/>
<stop offset="1" stop-color="#F8DD99" stop-opacity="0"/>
</linearGradient>
<linearGradient id="paint15_linear_2003_392" x1="5.8525" y1="87.6004" x2="4.94351" y2="44.7578" gradientUnits="userSpaceOnUse">
<stop stop-color="#743337"/>
<stop offset="1" stop-color="#D05F50"/>
</linearGradient>
<linearGradient id="paint16_linear_2003_392" x1="11.1045" y1="77.9208" x2="-25.7813" y2="95.5522" gradientUnits="userSpaceOnUse">
<stop stop-color="#5E2E31"/>
<stop offset="1" stop-color="#BE4141"/>
</linearGradient>
<linearGradient id="paint17_linear_2003_392" x1="23.3692" y1="74.7914" x2="11.9048" y2="98.0538" gradientUnits="userSpaceOnUse">
<stop stop-color="#6E2B2B"/>
<stop offset="1" stop-color="#A34F48"/>
</linearGradient>
<linearGradient id="paint18_linear_2003_392" x1="21.1517" y1="97.6438" x2="-16.8981" y2="137.96" gradientUnits="userSpaceOnUse">
<stop stop-color="#5E2E31"/>
<stop offset="1" stop-color="#BE4141"/>
</linearGradient>
<linearGradient id="paint19_linear_2003_392" x1="26.2743" y1="102.725" x2="27.4535" y2="128.882" gradientUnits="userSpaceOnUse">
<stop stop-color="#793C3C"/>
<stop offset="1" stop-color="#A34F48"/>
</linearGradient>
<clipPath id="clip0_2003_392">
<rect width="98" height="133" fill="white" transform="translate(0.0195312)"/>
</clipPath>
</defs>
</svg>
