<svg width="99" height="133" viewBox="0 0 99 133" fill="none" xmlns="http://www.w3.org/2000/svg">
<g clip-path="url(#clip0_2003_408)">
<path d="M67.9522 14.6063L78.519 0.599285L53.1894 17.0252L48.7433 28.0882L67.9522 14.6063Z" fill="url(#paint0_linear_2003_408)"/>
<path d="M67.9504 14.608L78.5167 0.600271L83.1889 25.7136L73.4195 32.4358L67.9504 14.608Z" fill="url(#paint1_linear_2003_408)"/>
<path d="M83.9904 45.0101L95.4386 38.5764L83.189 25.7121L73.4196 32.4342L83.9904 45.0101Z" fill="url(#paint2_linear_2003_408)"/>
<path d="M83.9902 45.0109L95.4385 38.5772L94.9695 79.1236L83.0642 72.5121L83.9902 45.0109Z" fill="url(#paint3_linear_2003_408)"/>
<path d="M83.9898 45.0098L73.4189 32.434L75.5804 52.9171L83.0637 72.511L83.9898 45.0098Z" fill="url(#paint4_linear_2003_408)"/>
<path d="M72.084 92.2927L79.2348 99.4429L94.9687 79.1226L83.0634 72.5111L72.084 92.2927Z" fill="url(#paint5_linear_2003_408)"/>
<path d="M83.0652 72.5111L72.0858 92.2928L42.4427 109.988L25.5913 107.809L75.5818 52.9172L83.0652 72.5111Z" fill="url(#paint6_linear_2003_408)"/>
<path d="M72.0853 92.2927L79.2361 99.4429L47.6424 125.704L42.4394 109.988L72.0853 92.2927Z" fill="url(#paint7_linear_2003_408)"/>
<path d="M25.5373 107.713L23.0375 122.354L47.643 125.705L42.4423 109.988L25.5373 107.713Z" fill="url(#paint8_linear_2003_408)"/>
<path d="M43.9372 26.7088L40.5573 17.5176L53.1872 17.0254L48.7411 28.0885L43.9372 26.7088Z" fill="url(#paint9_linear_2003_408)"/>
<path d="M43.9373 26.7091L40.554 17.5172L3.62936 47.3034L13.1456 51.6075L43.9373 26.7091Z" fill="url(#paint10_linear_2003_408)"/>
<path d="M43.9384 26.7098L48.7423 28.0894L20.1136 79.3582L13.6044 77.009L13.1467 51.6083L43.9384 26.7098Z" fill="url(#paint11_linear_2003_408)"/>
<path d="M67.9519 14.6064L48.743 28.0883L20.1144 79.357L18.2053 89.3865L25.5956 107.809L34.1251 98.52L75.5824 52.9173L73.421 32.4341L67.9519 14.6064Z" fill="url(#paint12_linear_2003_408)"/>
<path d="M73.4206 32.4359L75.5819 52.9191L75.5809 52.9192L83.0642 72.5122L72.0847 92.2938L42.4418 109.99L25.5952 107.809L25.5953 107.81L25.5942 107.809L25.5903 107.81L25.5921 107.805L18.2055 89.3884L20.1138 79.3594L20.1138 79.3584L13.6045 77.0091L13.1468 51.6083L43.9383 26.7097L48.7427 28.0894L48.7417 28.0904L67.9518 14.6087L73.4206 32.4359Z" fill="url(#paint13_radial_2003_408)" fill-opacity="0.5"/>
<path d="M16.1302 52.2487L15.4163 75.4708L22.6176 78.0717L20.2507 88.6746L27.4556 105.459L41.7913 108.037L70.6226 90.3532L83.0597 72.5192L72.0859 92.2929L42.1184 109.989L25.5964 107.809L25.5964 107.81L25.5954 107.809L25.5915 107.81L25.5933 107.805L18.2066 89.3875L20.115 79.3584L20.1149 79.3575L13.6056 77.0082L13.1479 51.6073L43.9395 26.7087L16.1302 52.2487Z" fill="url(#paint14_linear_2003_408)" fill-opacity="0.2"/>
<path d="M13.6042 77.0069L5.16556 77.6528L3.63028 47.3021L13.1465 51.6062L13.6042 77.0069Z" fill="url(#paint15_linear_2003_408)"/>
<path d="M13.6038 77.0081L5.16532 77.654L11.3941 83.9278L20.028 79.3953L13.6038 77.0081Z" fill="url(#paint16_linear_2003_408)"/>
<path d="M20.1139 79.3573L20.1126 79.3579L18.2038 89.3864L9.36943 96.4414L11.3941 83.9272L20.1126 79.3579L20.1128 79.357L20.1139 79.3573Z" fill="url(#paint17_linear_2003_408)"/>
<path d="M12.7796 122.016L25.5943 107.809L18.2058 89.387L9.37577 96.4429L12.7796 122.016Z" fill="url(#paint18_linear_2003_408)"/>
<path d="M12.7796 122.016L25.5942 107.81L23.2402 122.388L12.7796 122.016Z" fill="url(#paint19_linear_2003_408)"/>
</g>
<g clip-path="url(#clip1_2003_408)">
<g filter="url(#filter0_ddi_2003_408)">
<path fill-rule="evenodd" clip-rule="evenodd" d="M47.9893 90.1944L33.3696 95.5634L30.516 84.3014L38.1022 57.7433C39.3729 55.3128 42.7727 49.6352 46.2062 46.3682C49.6398 43.1012 59.9832 38.5495 64.7257 36.682C67.7729 49.7592 65.4903 63.7875 63.968 69.1669L47.9893 90.1944ZM63.0166 40.4444L61.7621 64.3994L57.9827 57.367L47.9805 62.5647L46.3196 56.0097L63.0166 40.4444ZM45.6353 63.8245L43.9708 57.255L40.6881 58.7526L32.8642 84.3722L35.0044 92.8187L45.4779 88.1674L39.922 88.5764L36.5474 85.7694L45.6353 63.8245Z" fill="white"/>
<path d="M31.4834 60.7581L26.4675 80.0227L23.9661 56.5951L30.4381 49.5114L31.4834 60.7581Z" fill="white"/>
<path d="M66.0138 74.1918L53.9591 90.0337L73.9304 77.5336L75.5052 68.0685L66.0138 74.1918Z" fill="white"/>
</g>
</g>
<defs>
<filter id="filter0_ddi_2003_408" x="20.5113" y="33.2273" width="58.4485" height="65.7908" filterUnits="userSpaceOnUse" color-interpolation-filters="sRGB">
<feFlood flood-opacity="0" result="BackgroundImageFix"/>
<feColorMatrix in="SourceAlpha" type="matrix" values="0 0 0 0 0 0 0 0 0 0 0 0 0 0 0 0 0 0 127 0" result="hardAlpha"/>
<feOffset/>
<feGaussianBlur stdDeviation="1.72736"/>
<feComposite in2="hardAlpha" operator="out"/>
<feColorMatrix type="matrix" values="0 0 0 0 1 0 0 0 0 1 0 0 0 0 1 0 0 0 0.15 0"/>
<feBlend mode="normal" in2="BackgroundImageFix" result="effect1_dropShadow_2003_408"/>
<feColorMatrix in="SourceAlpha" type="matrix" values="0 0 0 0 0 0 0 0 0 0 0 0 0 0 0 0 0 0 127 0" result="hardAlpha"/>
<feOffset dy="-0.616916"/>
<feComposite in2="hardAlpha" operator="out"/>
<feColorMatrix type="matrix" values="0 0 0 0 1 0 0 0 0 1 0 0 0 0 1 0 0 0 1 0"/>
<feBlend mode="normal" in2="effect1_dropShadow_2003_408" result="effect2_dropShadow_2003_408"/>
<feBlend mode="normal" in="SourceGraphic" in2="effect2_dropShadow_2003_408" result="shape"/>
<feColorMatrix in="SourceAlpha" type="matrix" values="0 0 0 0 0 0 0 0 0 0 0 0 0 0 0 0 0 0 127 0" result="hardAlpha"/>
<feOffset/>
<feGaussianBlur stdDeviation="2.46766"/>
<feComposite in2="hardAlpha" operator="arithmetic" k2="-1" k3="1"/>
<feColorMatrix type="matrix" values="0 0 0 0 0.278431 0 0 0 0 0.612784 0 0 0 0 0.854902 0 0 0 1 0"/>
<feBlend mode="normal" in2="shape" result="effect3_innerShadow_2003_408"/>
</filter>
<linearGradient id="paint0_linear_2003_408" x1="63.1848" y1="2.60631" x2="64.0786" y2="25.5779" gradientUnits="userSpaceOnUse">
<stop stop-color="#71AFC3"/>
<stop offset="1" stop-color="#4B7AAD"/>
</linearGradient>
<linearGradient id="paint1_linear_2003_408" x1="86.2295" y1="24.0463" x2="71.3245" y2="31.565" gradientUnits="userSpaceOnUse">
<stop stop-color="#36587E"/>
<stop offset="1" stop-color="#406893"/>
</linearGradient>
<linearGradient id="paint2_linear_2003_408" x1="84.0943" y1="26.7123" x2="84.7504" y2="43.5757" gradientUnits="userSpaceOnUse">
<stop stop-color="#71AFC3"/>
<stop offset="1" stop-color="#4B7AAD"/>
</linearGradient>
<linearGradient id="paint3_linear_2003_408" x1="92.0628" y1="79.4629" x2="92.6462" y2="36.8796" gradientUnits="userSpaceOnUse">
<stop stop-color="#36587E"/>
<stop offset="1" stop-color="#406893"/>
</linearGradient>
<linearGradient id="paint4_linear_2003_408" x1="84.5027" y1="42.5698" x2="45.3962" y2="74.7963" gradientUnits="userSpaceOnUse">
<stop stop-color="#2A4360"/>
<stop offset="1" stop-color="#3D628A"/>
</linearGradient>
<linearGradient id="paint5_linear_2003_408" x1="52.6922" y1="89.3835" x2="100.77" y2="83.4196" gradientUnits="userSpaceOnUse">
<stop stop-color="#5380B3"/>
<stop offset="1" stop-color="#376290"/>
</linearGradient>
<linearGradient id="paint6_linear_2003_408" x1="48.8962" y1="55.5462" x2="71.0628" y2="103.38" gradientUnits="userSpaceOnUse">
<stop stop-color="#325173"/>
<stop offset="1" stop-color="#4876A8"/>
</linearGradient>
<linearGradient id="paint7_linear_2003_408" x1="61.1464" y1="122.63" x2="56.4797" y2="84.7132" gradientUnits="userSpaceOnUse">
<stop stop-color="#2A4360"/>
<stop offset="1" stop-color="#3D628A"/>
</linearGradient>
<linearGradient id="paint8_linear_2003_408" x1="37.2295" y1="104.546" x2="33.7295" y2="133.13" gradientUnits="userSpaceOnUse">
<stop stop-color="#314F70"/>
<stop offset="1" stop-color="#3D628A"/>
</linearGradient>
<linearGradient id="paint9_linear_2003_408" x1="45.3962" y1="12.3796" x2="50.1008" y2="30.2693" gradientUnits="userSpaceOnUse">
<stop stop-color="#36587E"/>
<stop offset="1" stop-color="#406893"/>
</linearGradient>
<linearGradient id="paint10_linear_2003_408" x1="23.134" y1="19.964" x2="24.255" y2="48.7752" gradientUnits="userSpaceOnUse">
<stop stop-color="#71AFC3"/>
<stop offset="1" stop-color="#4B7AAD"/>
</linearGradient>
<linearGradient id="paint11_linear_2003_408" x1="48.8962" y1="36.2962" x2="-5.11455" y2="57.6249" gradientUnits="userSpaceOnUse">
<stop stop-color="#325274"/>
<stop offset="1" stop-color="#5386B6"/>
</linearGradient>
<linearGradient id="paint12_linear_2003_408" x1="55.8179" y1="19.6518" x2="24.3851" y2="107.945" gradientUnits="userSpaceOnUse">
<stop stop-color="#325173"/>
<stop offset="1" stop-color="#5F8FBB"/>
</linearGradient>
<radialGradient id="paint13_radial_2003_408" cx="0" cy="0" r="1" gradientUnits="userSpaceOnUse" gradientTransform="translate(6.42132 123.149) rotate(-57.2672) scale(99.0632 62.9281)">
<stop stop-color="#64E4F6"/>
<stop offset="1" stop-color="#64E4F6" stop-opacity="0"/>
</radialGradient>
<linearGradient id="paint14_linear_2003_408" x1="37.5251" y1="98.2844" x2="71.2217" y2="37.6626" gradientUnits="userSpaceOnUse">
<stop stop-color="#98E8F9"/>
<stop offset="1" stop-color="#98E7F9" stop-opacity="0"/>
</linearGradient>
<linearGradient id="paint15_linear_2003_408" x1="6.31243" y1="87.6001" x2="5.40344" y2="44.7576" gradientUnits="userSpaceOnUse">
<stop stop-color="#3E638D"/>
<stop offset="1" stop-color="#6192CA"/>
</linearGradient>
<linearGradient id="paint16_linear_2003_408" x1="20.8856" y1="78.5099" x2="-3.60385" y2="85.8796" gradientUnits="userSpaceOnUse">
<stop stop-color="#2A4360"/>
<stop offset="1" stop-color="#3D628A"/>
</linearGradient>
<linearGradient id="paint17_linear_2003_408" x1="20.3128" y1="85.8796" x2="6.42925" y2="94.5796" gradientUnits="userSpaceOnUse">
<stop stop-color="#36587E"/>
<stop offset="1" stop-color="#406893"/>
</linearGradient>
<linearGradient id="paint18_linear_2003_408" x1="26.1462" y1="97.5462" x2="3.97949" y2="112.13" gradientUnits="userSpaceOnUse">
<stop stop-color="#2A4360"/>
<stop offset="1" stop-color="#3D628A"/>
</linearGradient>
<linearGradient id="paint19_linear_2003_408" x1="27.8962" y1="99.8796" x2="16.8893" y2="123.996" gradientUnits="userSpaceOnUse">
<stop stop-color="#36587E"/>
<stop offset="1" stop-color="#406893"/>
</linearGradient>
<clipPath id="clip0_2003_408">
<rect width="98" height="133" fill="white" transform="translate(0.479492)"/>
</clipPath>
<clipPath id="clip1_2003_408">
<rect width="69.0946" height="69.0946" fill="white" transform="translate(82.6346 99.0946) rotate(180)"/>
</clipPath>
</defs>
</svg>
