<svg width="99" height="133" viewBox="0 0 99 133" fill="none" xmlns="http://www.w3.org/2000/svg">
<g clip-path="url(#clip0_2003_409)">
<g filter="url(#filter0_d_2003_409)">
<path d="M67.5723 14.6065L78.1391 0.599529L52.8095 17.0254L48.3634 28.0885L67.5723 14.6065Z" fill="url(#paint0_linear_2003_409)"/>
<path d="M67.5705 14.6082L78.1368 0.600515L82.809 25.7139L73.0396 32.436L67.5705 14.6082Z" fill="url(#paint1_linear_2003_409)"/>
<path d="M83.6104 45.0103L95.0587 38.5766L82.809 25.7123L73.0396 32.4345L83.6104 45.0103Z" fill="url(#paint2_linear_2003_409)"/>
<path d="M83.6104 45.0111L95.0586 38.5774L94.5896 79.1238L82.6843 72.5123L83.6104 45.0111Z" fill="url(#paint3_linear_2003_409)"/>
<path d="M83.6099 45.0101L73.0391 32.4342L75.2005 52.9174L82.6839 72.5112L83.6099 45.0101Z" fill="url(#paint4_linear_2003_409)"/>
<path d="M71.7042 92.293L78.855 99.4432L94.5889 79.1228L82.6836 72.5113L71.7042 92.293Z" fill="url(#paint5_linear_2003_409)"/>
<path d="M82.6853 72.5115L71.7059 92.2931L42.0628 109.989L25.2114 107.809L75.2019 52.9176L82.6853 72.5115Z" fill="url(#paint6_linear_2003_409)"/>
<path d="M71.7055 92.2929L78.8563 99.4431L47.2626 125.705L42.0595 109.988L71.7055 92.2929Z" fill="url(#paint7_linear_2003_409)"/>
<path d="M25.1574 107.713L22.6576 122.355L47.2631 125.705L42.0624 109.988L25.1574 107.713Z" fill="url(#paint8_linear_2003_409)"/>
<path d="M43.5574 26.7091L40.1775 17.5179L52.8073 17.0257L48.3613 28.0887L43.5574 26.7091Z" fill="url(#paint9_linear_2003_409)"/>
<path d="M43.5574 26.7093L40.1741 17.5175L3.24947 47.3037L12.7657 51.6078L43.5574 26.7093Z" fill="url(#paint10_linear_2003_409)"/>
<path d="M43.5586 26.7102L48.3624 28.0898L19.7338 79.3585L13.2246 77.0093L12.7669 51.6086L43.5586 26.7102Z" fill="url(#paint11_linear_2003_409)"/>
<path d="M67.572 14.6066L48.3631 28.0885L19.7345 79.3573L17.8254 89.3867L25.2158 107.809L33.7452 98.5203L75.2025 52.9175L73.0411 32.4344L67.572 14.6066Z" fill="url(#paint12_linear_2003_409)"/>
<path d="M73.0408 32.4371L75.202 52.9194L75.201 52.9194L82.6843 72.5124L71.7049 92.2941L42.0619 109.99L25.2105 107.811L25.2132 107.805L17.8256 89.3887L19.734 79.3596L19.734 79.3587L13.2246 77.0094L12.7669 51.6086L43.5585 26.7099L48.3628 28.0896L48.3619 28.0906L67.572 14.6089L73.0408 32.4371Z" fill="url(#paint13_radial_2003_409)" fill-opacity="0.5"/>
<path d="M15.7503 52.249L15.0365 75.472L22.2377 78.0719L19.8708 88.6749L27.0758 105.459L41.4114 108.038L70.2428 90.3534L82.6799 72.5195L71.706 92.2931L41.7386 109.989L25.2165 107.809L25.2165 107.81L25.2155 107.809L25.2116 107.809L25.2134 107.804L17.8267 89.3877L19.7351 79.3587L19.7351 79.3577L13.2257 77.0084L12.768 51.6076L43.5596 26.709L15.7503 52.249Z" fill="url(#paint14_linear_2003_409)" fill-opacity="0.2"/>
<path d="M13.2243 77.0072L4.78565 77.653L3.25037 47.3024L12.7666 51.6065L13.2243 77.0072Z" fill="url(#paint15_linear_2003_409)"/>
<path d="M13.2239 77.0085L4.78541 77.6544L11.0142 83.9282L19.6481 79.3957L13.2239 77.0085Z" fill="url(#paint16_linear_2003_409)"/>
<path d="M19.734 79.3575L19.7328 79.3581L17.8239 89.3866L8.98954 96.4416L11.0142 83.9274L19.7328 79.3581L19.7329 79.3572L19.734 79.3575Z" fill="url(#paint17_linear_2003_409)"/>
<path d="M12.3998 122.016L25.2144 107.809L17.8259 89.3874L8.99589 96.4433L12.3998 122.016Z" fill="url(#paint18_linear_2003_409)"/>
<path d="M12.3996 122.016L25.2142 107.81L22.8603 122.389L12.3996 122.016Z" fill="url(#paint19_linear_2003_409)"/>
</g>
</g>
<g filter="url(#filter1_ddi_2003_409)">
<path fill-rule="evenodd" clip-rule="evenodd" d="M54.5607 64.9791C46.3828 61.873 32.9527 69.0501 32.9511 79.3695C31.7526 79.3695 31.306 77.409 31.0178 76.1443C30.8407 75.3671 30.7235 74.8526 30.5285 75.2173C30.0382 76.1341 29.6021 77.0938 29.2381 78.0797C27.6888 82.2755 27.4437 86.9455 29.8695 90.7995C32.8781 95.5792 40.6924 98.7189 45.2072 94.2041C47.3041 94.6235 46.1312 96.262 45.4071 97.2734C45.0177 97.8175 44.758 98.1801 45.2072 98.0739C45.837 97.925 46.8822 97.2709 47.862 96.6577C48.6013 96.195 49.3034 95.7556 49.7616 95.5742C58.8963 91.9583 66.1416 84.6267 69.9128 75.5554C70.4441 74.2773 72.8692 60.4053 69.9128 68.4722C66.9563 76.539 59.9466 71.5399 59.9898 71.1134C59.4431 69.3794 52.3019 67.1152 45.2072 75.2173C42.7742 70.1284 49.7822 67.1919 53.0341 65.8293C54.0925 65.3858 54.753 65.1091 54.5607 64.9791ZM32.3075 81.9494C37.4673 89.6891 45.207 94.8489 52.3017 91.624C52.3017 91.624 49.7977 88.7051 50.1717 88.5135C50.6539 88.2664 51.1503 87.9959 51.6567 87.706C57.0315 84.6289 63.5443 79.3681 66.4911 76.7896C62.2327 79.0709 51.6567 83.8843 43.2721 81.3044C42.9136 81.4274 44.3299 82.7882 45.6763 84.0819C45.7311 84.1346 45.7859 84.1872 45.8404 84.2397L47.7869 86.4642C46.8129 86.7323 45.6389 86.3461 44.7777 86.0628C44.4277 85.9477 44.1293 85.8496 43.917 85.8192C39.4022 85.1743 35.5324 84.5293 32.3075 81.9494Z" fill="white"/>
</g>
<g filter="url(#filter2_ddi_2003_409)">
<path fill-rule="evenodd" clip-rule="evenodd" d="M27.3107 68.7635C24.7308 60.3789 31.1806 37.1598 50.5298 37.1598C69.879 37.1598 51.1744 59.7339 45.3696 59.7339C45.0872 59.7339 45.3585 59.4618 45.7751 59.0441C46.7925 58.0237 48.6763 56.1343 45.4729 55.2191C42.5417 57.7839 40.7902 56.7415 39.1349 55.7563C37.8763 55.0073 36.6735 54.2914 35.05 55.2191C32.6412 56.5956 31.5178 59.9917 30.504 63.0564C29.6177 65.7358 28.8151 68.1618 27.3107 68.7635ZM45.4254 40.4385C44.2422 40.4854 42.9612 40.5362 41.5663 40.5362C43.3886 43.0876 40.7228 45.1036 37.6499 47.4274C34.6593 49.6889 31.2832 52.242 31.2832 55.864C35.7981 50.0592 42.0044 46.8508 47.6997 48.9556C47.9418 48.8558 47.3932 47.6238 46.8687 46.4456C46.85 46.4036 46.8313 46.3617 46.8127 46.3199L46.1177 44.2544C50.6325 43.0739 55.407 43.6624 57.0822 45.2721C54.2061 40.0903 50.8384 40.2238 45.4254 40.4385Z" fill="white"/>
</g>
<g filter="url(#filter3_ddi_2003_409)">
<path fill-rule="evenodd" clip-rule="evenodd" d="M71.2722 46.0825C73.2071 49.9523 79.0117 62.2065 68.0471 63.4965C59.3308 64.5219 59.9891 59.4337 61.5976 55.3598C61.698 55.1055 61.7875 55.4948 61.9296 56.1123C62.3747 58.0465 63.335 62.2199 66.7574 55.8642C62.9644 53.2091 62.5173 50.5169 62.1366 48.2248C61.87 46.6194 61.636 45.2102 60.3076 44.1474C60.308 40.9226 69.3373 42.2126 71.2722 46.0825ZM65.1893 61.1095C68.519 62.0623 71.5509 60.9789 72.0566 57.454C72.5622 53.9292 72.8361 51.2598 70.3459 48.7695C71.2208 50.8336 69.9814 55.6075 69.2524 57.7365C68.1218 59.6678 66.3032 61.0873 65.1893 61.1095Z" fill="white"/>
</g>
<defs>
<filter id="filter0_d_2003_409" x="0.649161" y="0.599487" width="97.0099" height="130.306" filterUnits="userSpaceOnUse" color-interpolation-filters="sRGB">
<feFlood flood-opacity="0" result="BackgroundImageFix"/>
<feColorMatrix in="SourceAlpha" type="matrix" values="0 0 0 0 0 0 0 0 0 0 0 0 0 0 0 0 0 0 127 0" result="hardAlpha"/>
<feOffset dy="2.60035"/>
<feGaussianBlur stdDeviation="1.30018"/>
<feComposite in2="hardAlpha" operator="out"/>
<feColorMatrix type="matrix" values="0 0 0 0 0.216585 0 0 0 0 0.154565 0 0 0 0 0.0973153 0 0 0 0.25 0"/>
<feBlend mode="normal" in2="BackgroundImageFix" result="effect1_dropShadow_2003_409"/>
<feBlend mode="normal" in="SourceGraphic" in2="effect1_dropShadow_2003_409" result="shape"/>
</filter>
<filter id="filter1_ddi_2003_409" x="24.4477" y="60.6368" width="50.517" height="41.0675" filterUnits="userSpaceOnUse" color-interpolation-filters="sRGB">
<feFlood flood-opacity="0" result="BackgroundImageFix"/>
<feColorMatrix in="SourceAlpha" type="matrix" values="0 0 0 0 0 0 0 0 0 0 0 0 0 0 0 0 0 0 127 0" result="hardAlpha"/>
<feOffset/>
<feGaussianBlur stdDeviation="1.80593"/>
<feComposite in2="hardAlpha" operator="out"/>
<feColorMatrix type="matrix" values="0 0 0 0 1 0 0 0 0 1 0 0 0 0 1 0 0 0 0.15 0"/>
<feBlend mode="normal" in2="BackgroundImageFix" result="effect1_dropShadow_2003_409"/>
<feColorMatrix in="SourceAlpha" type="matrix" values="0 0 0 0 0 0 0 0 0 0 0 0 0 0 0 0 0 0 127 0" result="hardAlpha"/>
<feOffset dy="-0.644974"/>
<feComposite in2="hardAlpha" operator="out"/>
<feColorMatrix type="matrix" values="0 0 0 0 1 0 0 0 0 1 0 0 0 0 1 0 0 0 1 0"/>
<feBlend mode="normal" in2="effect1_dropShadow_2003_409" result="effect2_dropShadow_2003_409"/>
<feBlend mode="normal" in="SourceGraphic" in2="effect2_dropShadow_2003_409" result="shape"/>
<feColorMatrix in="SourceAlpha" type="matrix" values="0 0 0 0 0 0 0 0 0 0 0 0 0 0 0 0 0 0 127 0" result="hardAlpha"/>
<feOffset/>
<feGaussianBlur stdDeviation="2.5799"/>
<feComposite in2="hardAlpha" operator="arithmetic" k2="-1" k3="1"/>
<feColorMatrix type="matrix" values="0 0 0 0 0.854902 0 0 0 0 0.658902 0 0 0 0 0.278431 0 0 0 1 0"/>
<feBlend mode="normal" in2="shape" result="effect3_innerShadow_2003_409"/>
</filter>
<filter id="filter2_ddi_2003_409" x="23.1568" y="33.5479" width="39.5412" height="38.8275" filterUnits="userSpaceOnUse" color-interpolation-filters="sRGB">
<feFlood flood-opacity="0" result="BackgroundImageFix"/>
<feColorMatrix in="SourceAlpha" type="matrix" values="0 0 0 0 0 0 0 0 0 0 0 0 0 0 0 0 0 0 127 0" result="hardAlpha"/>
<feOffset/>
<feGaussianBlur stdDeviation="1.80593"/>
<feComposite in2="hardAlpha" operator="out"/>
<feColorMatrix type="matrix" values="0 0 0 0 1 0 0 0 0 1 0 0 0 0 1 0 0 0 0.15 0"/>
<feBlend mode="normal" in2="BackgroundImageFix" result="effect1_dropShadow_2003_409"/>
<feColorMatrix in="SourceAlpha" type="matrix" values="0 0 0 0 0 0 0 0 0 0 0 0 0 0 0 0 0 0 127 0" result="hardAlpha"/>
<feOffset dy="-0.644974"/>
<feComposite in2="hardAlpha" operator="out"/>
<feColorMatrix type="matrix" values="0 0 0 0 1 0 0 0 0 1 0 0 0 0 1 0 0 0 1 0"/>
<feBlend mode="normal" in2="effect1_dropShadow_2003_409" result="effect2_dropShadow_2003_409"/>
<feBlend mode="normal" in="SourceGraphic" in2="effect2_dropShadow_2003_409" result="shape"/>
<feColorMatrix in="SourceAlpha" type="matrix" values="0 0 0 0 0 0 0 0 0 0 0 0 0 0 0 0 0 0 127 0" result="hardAlpha"/>
<feOffset/>
<feGaussianBlur stdDeviation="2.5799"/>
<feComposite in2="hardAlpha" operator="arithmetic" k2="-1" k3="1"/>
<feColorMatrix type="matrix" values="0 0 0 0 0.854902 0 0 0 0 0.658902 0 0 0 0 0.278431 0 0 0 1 0"/>
<feBlend mode="normal" in2="shape" result="effect3_innerShadow_2003_409"/>
</filter>
<filter id="filter3_ddi_2003_409" x="56.6958" y="38.7078" width="21.4591" height="28.534" filterUnits="userSpaceOnUse" color-interpolation-filters="sRGB">
<feFlood flood-opacity="0" result="BackgroundImageFix"/>
<feColorMatrix in="SourceAlpha" type="matrix" values="0 0 0 0 0 0 0 0 0 0 0 0 0 0 0 0 0 0 127 0" result="hardAlpha"/>
<feOffset/>
<feGaussianBlur stdDeviation="1.80593"/>
<feComposite in2="hardAlpha" operator="out"/>
<feColorMatrix type="matrix" values="0 0 0 0 1 0 0 0 0 1 0 0 0 0 1 0 0 0 0.15 0"/>
<feBlend mode="normal" in2="BackgroundImageFix" result="effect1_dropShadow_2003_409"/>
<feColorMatrix in="SourceAlpha" type="matrix" values="0 0 0 0 0 0 0 0 0 0 0 0 0 0 0 0 0 0 127 0" result="hardAlpha"/>
<feOffset dy="-0.644974"/>
<feComposite in2="hardAlpha" operator="out"/>
<feColorMatrix type="matrix" values="0 0 0 0 1 0 0 0 0 1 0 0 0 0 1 0 0 0 1 0"/>
<feBlend mode="normal" in2="effect1_dropShadow_2003_409" result="effect2_dropShadow_2003_409"/>
<feBlend mode="normal" in="SourceGraphic" in2="effect2_dropShadow_2003_409" result="shape"/>
<feColorMatrix in="SourceAlpha" type="matrix" values="0 0 0 0 0 0 0 0 0 0 0 0 0 0 0 0 0 0 127 0" result="hardAlpha"/>
<feOffset/>
<feGaussianBlur stdDeviation="2.5799"/>
<feComposite in2="hardAlpha" operator="arithmetic" k2="-1" k3="1"/>
<feColorMatrix type="matrix" values="0 0 0 0 0.854902 0 0 0 0 0.658902 0 0 0 0 0.278431 0 0 0 1 0"/>
<feBlend mode="normal" in2="shape" result="effect3_innerShadow_2003_409"/>
</filter>
<linearGradient id="paint0_linear_2003_409" x1="62.8048" y1="2.60656" x2="63.6987" y2="25.5782" gradientUnits="userSpaceOnUse">
<stop stop-color="#D9CD62"/>
<stop offset="1" stop-color="#B57639"/>
</linearGradient>
<linearGradient id="paint1_linear_2003_409" x1="82.1904" y1="9.73007" x2="53.2927" y2="26.9779" gradientUnits="userSpaceOnUse">
<stop stop-color="#7A5438"/>
<stop offset="1" stop-color="#B47749"/>
</linearGradient>
<linearGradient id="paint2_linear_2003_409" x1="83.7143" y1="26.7125" x2="84.3705" y2="43.576" gradientUnits="userSpaceOnUse">
<stop stop-color="#D9CD62"/>
<stop offset="1" stop-color="#B57639"/>
</linearGradient>
<linearGradient id="paint3_linear_2003_409" x1="92.8496" y1="89.3798" x2="124.85" y2="47.519" gradientUnits="userSpaceOnUse">
<stop stop-color="#7A5438"/>
<stop offset="1" stop-color="#B47749"/>
</linearGradient>
<linearGradient id="paint4_linear_2003_409" x1="85.1294" y1="34.0609" x2="31.8429" y2="123.709" gradientUnits="userSpaceOnUse">
<stop stop-color="#6B422C"/>
<stop offset="1" stop-color="#95653D"/>
</linearGradient>
<linearGradient id="paint5_linear_2003_409" x1="52.3124" y1="89.3838" x2="100.391" y2="83.4198" gradientUnits="userSpaceOnUse">
<stop stop-color="#BC9348"/>
<stop offset="1" stop-color="#98683C"/>
</linearGradient>
<linearGradient id="paint6_linear_2003_409" x1="57.2227" y1="60.3382" x2="66.7312" y2="93.0173" gradientUnits="userSpaceOnUse">
<stop stop-color="#865F3B"/>
<stop offset="1" stop-color="#A97946"/>
</linearGradient>
<linearGradient id="paint7_linear_2003_409" x1="60.7666" y1="122.63" x2="60.7666" y2="50.2968" gradientUnits="userSpaceOnUse">
<stop stop-color="#6B422C"/>
<stop offset="1" stop-color="#95653D"/>
</linearGradient>
<linearGradient id="paint8_linear_2003_409" x1="38.5996" y1="103.963" x2="40.3496" y2="145.38" gradientUnits="userSpaceOnUse">
<stop stop-color="#764D3A"/>
<stop offset="1" stop-color="#A46B3E"/>
<stop offset="1" stop-color="#935833"/>
</linearGradient>
<linearGradient id="paint9_linear_2003_409" x1="52.9344" y1="20.2176" x2="41.9863" y2="36.3066" gradientUnits="userSpaceOnUse">
<stop stop-color="#7A5438"/>
<stop offset="1" stop-color="#B47749"/>
</linearGradient>
<linearGradient id="paint10_linear_2003_409" x1="22.7541" y1="19.9643" x2="23.8751" y2="48.7754" gradientUnits="userSpaceOnUse">
<stop stop-color="#D9CD62"/>
<stop offset="1" stop-color="#B57639"/>
</linearGradient>
<linearGradient id="paint11_linear_2003_409" x1="-14.4837" y1="79.4633" x2="42.683" y2="19.3799" gradientUnits="userSpaceOnUse">
<stop stop-color="#BE944D"/>
<stop offset="1" stop-color="#724C34"/>
</linearGradient>
<linearGradient id="paint12_linear_2003_409" x1="55.438" y1="19.652" x2="24.0052" y2="107.945" gradientUnits="userSpaceOnUse">
<stop stop-color="#77472E"/>
<stop offset="1" stop-color="#D2B15D"/>
</linearGradient>
<radialGradient id="paint13_radial_2003_409" cx="0" cy="0" r="1" gradientUnits="userSpaceOnUse" gradientTransform="translate(6.04146 123.149) rotate(-57.2672) scale(99.0632 62.9281)">
<stop stop-color="#F5CD65"/>
<stop offset="1" stop-color="#F5B065" stop-opacity="0"/>
</radialGradient>
<linearGradient id="paint14_linear_2003_409" x1="37.1453" y1="98.2846" x2="70.8418" y2="37.6628" gradientUnits="userSpaceOnUse">
<stop stop-color="#F5DE66"/>
<stop offset="1" stop-color="#F5DE66" stop-opacity="0"/>
</linearGradient>
<linearGradient id="paint15_linear_2003_409" x1="5.93251" y1="87.6004" x2="5.02353" y2="44.7578" gradientUnits="userSpaceOnUse">
<stop stop-color="#8E5D3C"/>
<stop offset="1" stop-color="#CB8A48"/>
</linearGradient>
<linearGradient id="paint16_linear_2003_409" x1="11.1845" y1="77.9208" x2="-25.7013" y2="95.5522" gradientUnits="userSpaceOnUse">
<stop stop-color="#613D29"/>
<stop offset="1" stop-color="#95633C"/>
</linearGradient>
<linearGradient id="paint17_linear_2003_409" x1="20.6489" y1="73.5234" x2="10.2822" y2="102.206" gradientUnits="userSpaceOnUse">
<stop stop-color="#8B5F3C"/>
<stop offset="1" stop-color="#A57348"/>
</linearGradient>
<linearGradient id="paint18_linear_2003_409" x1="22.2663" y1="95.2133" x2="0.682938" y2="120.88" gradientUnits="userSpaceOnUse">
<stop stop-color="#613D29"/>
<stop offset="1" stop-color="#95633C"/>
</linearGradient>
<linearGradient id="paint19_linear_2003_409" x1="26.3544" y1="102.725" x2="19.4777" y2="129.245" gradientUnits="userSpaceOnUse">
<stop stop-color="#8B5F3C"/>
<stop offset="1" stop-color="#A57348"/>
</linearGradient>
<clipPath id="clip0_2003_409">
<rect width="98" height="133" fill="white" transform="translate(0.0996094)"/>
</clipPath>
</defs>
</svg>
