<svg width="99" height="133" viewBox="0 0 99 133" fill="none" xmlns="http://www.w3.org/2000/svg">
<g clip-path="url(#clip0_2003_391)">
<g filter="url(#filter0_d_2003_391)">
<path d="M68.0325 14.6065L78.5993 0.599529L53.2697 17.0254L48.8236 28.0885L68.0325 14.6065Z" fill="url(#paint0_linear_2003_391)"/>
<path d="M68.0306 14.6082L78.5969 0.600515L83.2691 25.7139L73.4997 32.436L68.0306 14.6082Z" fill="url(#paint1_linear_2003_391)"/>
<path d="M84.0706 45.0103L95.5189 38.5766L83.2692 25.7123L73.4998 32.4345L84.0706 45.0103Z" fill="url(#paint2_linear_2003_391)"/>
<path d="M84.0704 45.0111L95.5187 38.5774L95.0497 79.1238L83.1444 72.5123L84.0704 45.0111Z" fill="url(#paint3_linear_2003_391)"/>
<path d="M84.07 45.0101L73.4992 32.4342L75.6606 52.9174L83.144 72.5112L84.07 45.0101Z" fill="url(#paint4_linear_2003_391)"/>
<path d="M72.1643 92.293L79.3151 99.4432L95.049 79.1228L83.1437 72.5113L72.1643 92.293Z" fill="url(#paint5_linear_2003_391)"/>
<path d="M83.1454 72.5115L72.166 92.2931L42.5229 109.989L25.6715 107.809L75.662 52.9176L83.1454 72.5115Z" fill="url(#paint6_linear_2003_391)"/>
<path d="M72.1656 92.2929L79.3164 99.4431L47.7227 125.705L42.5196 109.988L72.1656 92.2929Z" fill="url(#paint7_linear_2003_391)"/>
<path d="M25.6175 107.713L23.1177 122.355L47.7233 125.705L42.5226 109.988L25.6175 107.713Z" fill="url(#paint8_linear_2003_391)"/>
<path d="M44.0175 26.7091L40.6376 17.5179L53.2674 17.0257L48.8213 28.0887L44.0175 26.7091Z" fill="url(#paint9_linear_2003_391)"/>
<path d="M44.0176 26.7093L40.6343 17.5175L3.70968 47.3037L13.2259 51.6078L44.0176 26.7093Z" fill="url(#paint10_linear_2003_391)"/>
<path d="M44.0187 26.7102L48.8225 28.0898L20.1939 79.3585L13.6847 77.0093L13.2269 51.6086L44.0187 26.7102Z" fill="url(#paint11_linear_2003_391)"/>
<path d="M68.0321 14.6066L48.8233 28.0885L20.1946 79.3573L18.2856 89.3867L25.6759 107.809L34.2054 98.5203L75.6627 52.9175L73.5012 32.4344L68.0321 14.6066Z" fill="url(#paint12_linear_2003_391)"/>
<path d="M73.5008 32.4371L75.6621 52.9194L75.6611 52.9194L83.1444 72.5124L72.165 92.2941L42.522 109.99L25.6706 107.811L25.6733 107.805L18.2857 89.3887L20.1941 79.3596L20.194 79.3587L13.6847 77.0094L13.227 51.6086L44.0186 26.7099L48.8229 28.0896L48.822 28.0906L68.0321 14.6089L73.5008 32.4371Z" fill="url(#paint13_radial_2003_391)" fill-opacity="0.5"/>
<path d="M16.2105 52.249L15.4976 75.472L22.6979 78.0719L20.332 88.6749L27.5359 105.459L41.8716 108.038L70.7029 90.3534L83.14 72.5195L72.1661 92.2931L42.1987 109.989L25.6766 107.809L25.6767 107.81L25.6756 107.809L25.6717 107.809L25.6735 107.804L18.2869 89.3877L20.1952 79.3587L20.1952 79.3577L13.6859 77.0084L13.2282 51.6076L44.0197 26.709L16.2105 52.249Z" fill="url(#paint14_linear_2003_391)" fill-opacity="0.2"/>
<path d="M13.6845 77.0072L5.24585 77.653L3.71057 47.3024L13.2268 51.6065L13.6845 77.0072Z" fill="url(#paint15_linear_2003_391)"/>
<path d="M13.6841 77.0085L5.24562 77.6544L11.4744 83.9282L20.1083 79.3957L13.6841 77.0085Z" fill="url(#paint16_linear_2003_391)"/>
<path d="M20.1941 79.3575L20.1929 79.3581L18.284 89.3866L9.44969 96.4416L11.4743 83.9274L20.1929 79.3581L20.1931 79.3572L20.1941 79.3575Z" fill="url(#paint17_linear_2003_391)"/>
<path d="M12.8599 122.016L25.6745 107.809L18.2861 89.3874L9.45603 96.4433L12.8599 122.016Z" fill="url(#paint18_linear_2003_391)"/>
<path d="M12.8598 122.016L25.6744 107.81L23.3205 122.389L12.8598 122.016Z" fill="url(#paint19_linear_2003_391)"/>
</g>
</g>
<g clip-path="url(#clip1_2003_391)">
<g filter="url(#filter1_ddi_2003_391)">
<path fill-rule="evenodd" clip-rule="evenodd" d="M38.7457 60.0075C39.3728 60.6345 40.6199 60.1453 41.8984 59.6439C42.7745 59.3002 43.6653 58.9508 44.3814 58.9508C44.9514 58.9508 45.0049 60.2422 45.0793 62.0369C45.1539 63.8382 45.2495 66.1466 45.9095 68.1649C46.1718 68.9668 46.5231 69.7228 46.9976 70.3832C47.8152 71.521 48.9986 72.3745 50.722 72.6879C56.2206 73.6876 59.4136 66.8841 61.3079 62.8479L61.3079 62.8479C62.0832 61.1959 62.6409 60.0075 63.0501 60.0075C63.5651 60.0075 63.6095 60.1957 63.6821 60.5033C63.8082 61.0374 64.0192 61.9314 66.9247 62.8253C71.5037 64.2343 70.0943 36.7603 53.8917 37.1125C37.6891 37.4647 37.6891 58.9508 38.7457 60.0075ZM49.3145 54.724C52.8368 53.6673 51.7802 47.6794 49.3145 43.8049C45.7922 43.8049 42.9744 48.3839 41.5655 51.2017C40.1565 54.0196 45.7922 55.7807 49.3145 54.724ZM63.756 57.1896C70.0962 57.8941 65.1649 46.9749 62.6993 46.2705C60.8462 46.2705 59.9879 47.8622 59.0777 49.5503L59.0777 49.5503L59.0777 49.5503L59.0777 49.5503C58.7768 50.1083 58.4703 50.6767 58.1203 51.2017C56.7114 53.3151 57.4158 56.4852 63.756 57.1896ZM54.4151 59.1362C51.2108 58.1833 51.2108 56.754 55.4832 54.3718C55.5803 54.8051 55.7127 55.27 55.8452 55.7348C56.4409 57.8254 57.0365 59.9158 54.4151 59.1362Z" fill="white"/>
<path fill-rule="evenodd" clip-rule="evenodd" d="M73.4369 60.3338C72.8739 70.8478 64.6831 79.6445 53.8859 80.6601C42.007 81.7774 31.4716 73.0534 30.3543 61.1746C29.6286 53.4596 33.0542 46.3112 38.7992 41.9417C34.5518 43.9968 31.0279 47.2396 28.6153 51.2018C28.065 52.1055 22.3935 61.5507 22.3935 61.5507C22.3935 61.5507 26.3067 56.1021 25.9977 57.1897C25.198 60.0051 24.897 63.0134 25.1876 66.1025C25.6649 71.1777 27.6704 75.7409 30.7065 79.3803C31.6692 80.5342 30.7065 94.2297 30.7065 94.2297C30.7065 94.2297 36.8839 84.7542 38.5529 85.587C42.4753 87.5441 46.9751 88.4644 51.6606 88.0237C54.7331 87.7347 57.6179 86.8857 60.2237 85.587C61.6003 84.9009 62.8765 92.566 62.8765 92.566C62.8765 92.566 66.8914 80.7834 68.0599 79.3803C70.2323 76.7718 71.8614 73.7113 72.7943 70.3834C73.1472 69.1243 75.6311 77.5925 75.6311 77.5925C75.6311 77.5925 73.7399 63.2308 73.5818 61.5507C73.5434 61.1416 73.495 60.7359 73.4369 60.3338Z" fill="white"/>
</g>
</g>
<defs>
<filter id="filter0_d_2003_391" x="1.1093" y="0.599487" width="97.0099" height="130.306" filterUnits="userSpaceOnUse" color-interpolation-filters="sRGB">
<feFlood flood-opacity="0" result="BackgroundImageFix"/>
<feColorMatrix in="SourceAlpha" type="matrix" values="0 0 0 0 0 0 0 0 0 0 0 0 0 0 0 0 0 0 127 0" result="hardAlpha"/>
<feOffset dy="2.60035"/>
<feGaussianBlur stdDeviation="1.30018"/>
<feComposite in2="hardAlpha" operator="out"/>
<feColorMatrix type="matrix" values="0 0 0 0 0.216585 0 0 0 0 0.154565 0 0 0 0 0.0973153 0 0 0 0.25 0"/>
<feBlend mode="normal" in2="BackgroundImageFix" result="effect1_dropShadow_2003_391"/>
<feBlend mode="normal" in="SourceGraphic" in2="effect1_dropShadow_2003_391" result="shape"/>
</filter>
<filter id="filter1_ddi_2003_391" x="19.2879" y="34.0036" width="59.4488" height="63.3318" filterUnits="userSpaceOnUse" color-interpolation-filters="sRGB">
<feFlood flood-opacity="0" result="BackgroundImageFix"/>
<feColorMatrix in="SourceAlpha" type="matrix" values="0 0 0 0 0 0 0 0 0 0 0 0 0 0 0 0 0 0 127 0" result="hardAlpha"/>
<feOffset/>
<feGaussianBlur stdDeviation="1.55279"/>
<feComposite in2="hardAlpha" operator="out"/>
<feColorMatrix type="matrix" values="0 0 0 0 1 0 0 0 0 1 0 0 0 0 1 0 0 0 0.15 0"/>
<feBlend mode="normal" in2="BackgroundImageFix" result="effect1_dropShadow_2003_391"/>
<feColorMatrix in="SourceAlpha" type="matrix" values="0 0 0 0 0 0 0 0 0 0 0 0 0 0 0 0 0 0 127 0" result="hardAlpha"/>
<feOffset dy="-0.554567"/>
<feComposite in2="hardAlpha" operator="out"/>
<feColorMatrix type="matrix" values="0 0 0 0 1 0 0 0 0 1 0 0 0 0 1 0 0 0 1 0"/>
<feBlend mode="normal" in2="effect1_dropShadow_2003_391" result="effect2_dropShadow_2003_391"/>
<feBlend mode="normal" in="SourceGraphic" in2="effect2_dropShadow_2003_391" result="shape"/>
<feColorMatrix in="SourceAlpha" type="matrix" values="0 0 0 0 0 0 0 0 0 0 0 0 0 0 0 0 0 0 127 0" result="hardAlpha"/>
<feOffset/>
<feGaussianBlur stdDeviation="2.21827"/>
<feComposite in2="hardAlpha" operator="arithmetic" k2="-1" k3="1"/>
<feColorMatrix type="matrix" values="0 0 0 0 0.278431 0 0 0 0 0.854902 0 0 0 0 0.578196 0 0 0 1 0"/>
<feBlend mode="normal" in2="shape" result="effect3_innerShadow_2003_391"/>
</filter>
<linearGradient id="paint0_linear_2003_391" x1="63.265" y1="2.60656" x2="64.1589" y2="25.5782" gradientUnits="userSpaceOnUse">
<stop stop-color="#84BE70"/>
<stop offset="1" stop-color="#3E8B58"/>
</linearGradient>
<linearGradient id="paint1_linear_2003_391" x1="80.4764" y1="7.71322" x2="67.0598" y2="27.5465" gradientUnits="userSpaceOnUse">
<stop stop-color="#247B5E"/>
<stop offset="1" stop-color="#377E4B"/>
</linearGradient>
<linearGradient id="paint2_linear_2003_391" x1="84.1745" y1="26.7125" x2="84.8307" y2="43.576" gradientUnits="userSpaceOnUse">
<stop stop-color="#84BE70"/>
<stop offset="1" stop-color="#3E8B58"/>
</linearGradient>
<linearGradient id="paint3_linear_2003_391" x1="93.9327" y1="74.4424" x2="66.6677" y2="38.1962" gradientUnits="userSpaceOnUse">
<stop stop-color="#247B5E"/>
<stop offset="1" stop-color="#377E4B"/>
</linearGradient>
<linearGradient id="paint4_linear_2003_391" x1="82.4999" y1="41.272" x2="59.0384" y2="57.4021" gradientUnits="userSpaceOnUse">
<stop stop-color="#185B45"/>
<stop offset="1" stop-color="#2B6C3D"/>
</linearGradient>
<linearGradient id="paint5_linear_2003_391" x1="97.9762" y1="100.463" x2="77.5596" y2="75.3797" gradientUnits="userSpaceOnUse">
<stop stop-color="#5CAF65"/>
<stop offset="1" stop-color="#307D53"/>
</linearGradient>
<linearGradient id="paint6_linear_2003_391" x1="69.3931" y1="103.38" x2="46.6431" y2="56.7133" gradientUnits="userSpaceOnUse">
<stop stop-color="#3B8850"/>
<stop offset="1" stop-color="#1B5E44"/>
</linearGradient>
<linearGradient id="paint7_linear_2003_391" x1="64.1433" y1="116.213" x2="64.7266" y2="78.2968" gradientUnits="userSpaceOnUse">
<stop stop-color="#185B45"/>
<stop offset="1" stop-color="#2B6C3D"/>
</linearGradient>
<linearGradient id="paint8_linear_2003_391" x1="39.6431" y1="107.463" x2="39.6431" y2="133.713" gradientUnits="userSpaceOnUse">
<stop stop-color="#1D6043"/>
<stop offset="1" stop-color="#377E4B"/>
</linearGradient>
<linearGradient id="paint9_linear_2003_391" x1="50.1431" y1="13.5465" x2="47.2264" y2="34.5466" gradientUnits="userSpaceOnUse">
<stop stop-color="#247B5E"/>
<stop offset="1" stop-color="#377E4B"/>
</linearGradient>
<linearGradient id="paint10_linear_2003_391" x1="23.2143" y1="19.9643" x2="24.3354" y2="48.7754" gradientUnits="userSpaceOnUse">
<stop stop-color="#84BE70"/>
<stop offset="1" stop-color="#3E8B58"/>
</linearGradient>
<linearGradient id="paint11_linear_2003_391" x1="5.2264" y1="63.1299" x2="53.6431" y2="35.1299" gradientUnits="userSpaceOnUse">
<stop stop-color="#3B8850"/>
<stop offset="1" stop-color="#1B5E44"/>
</linearGradient>
<linearGradient id="paint12_linear_2003_391" x1="22.1433" y1="103.963" x2="67.06" y2="18.7965" gradientUnits="userSpaceOnUse">
<stop stop-color="#61AA6F"/>
<stop offset="1" stop-color="#1B5E44"/>
</linearGradient>
<radialGradient id="paint13_radial_2003_391" cx="0" cy="0" r="1" gradientUnits="userSpaceOnUse" gradientTransform="translate(6.50155 123.149) rotate(-57.2672) scale(99.0632 62.9281)">
<stop stop-color="#B0DA86"/>
<stop offset="1" stop-color="#B0DA86" stop-opacity="0"/>
</radialGradient>
<linearGradient id="paint14_linear_2003_391" x1="37.6054" y1="98.2846" x2="71.3019" y2="37.6628" gradientUnits="userSpaceOnUse">
<stop stop-color="#EFFBCB"/>
<stop offset="1" stop-color="#EFFBCB" stop-opacity="0"/>
</linearGradient>
<linearGradient id="paint15_linear_2003_391" x1="7.55977" y1="36.2965" x2="8.72644" y2="79.4632" gradientUnits="userSpaceOnUse">
<stop stop-color="#5CAF65"/>
<stop offset="1" stop-color="#307D53"/>
</linearGradient>
<linearGradient id="paint16_linear_2003_391" x1="15.1431" y1="78.8799" x2="6.8606" y2="101.073" gradientUnits="userSpaceOnUse">
<stop stop-color="#185B45"/>
<stop offset="1" stop-color="#2B6C3D"/>
</linearGradient>
<linearGradient id="paint17_linear_2003_391" x1="18.7314" y1="83.1995" x2="12.9437" y2="95.9335" gradientUnits="userSpaceOnUse">
<stop stop-color="#247B5E"/>
<stop offset="1" stop-color="#377E4B"/>
</linearGradient>
<linearGradient id="paint18_linear_2003_391" x1="19.2264" y1="96.9633" x2="8.72642" y2="126.713" gradientUnits="userSpaceOnUse">
<stop stop-color="#185B45"/>
<stop offset="1" stop-color="#2B6C3D"/>
</linearGradient>
<linearGradient id="paint19_linear_2003_391" x1="22.3344" y1="103.15" x2="17.2625" y2="130.639" gradientUnits="userSpaceOnUse">
<stop stop-color="#247B5E"/>
<stop offset="1" stop-color="#377E4B"/>
</linearGradient>
<clipPath id="clip0_2003_391">
<rect width="98" height="133" fill="white" transform="translate(0.559753)"/>
</clipPath>
<clipPath id="clip1_2003_391">
<rect width="62.1115" height="62.1115" fill="white" transform="translate(19.6203 36)"/>
</clipPath>
</defs>
</svg>
