<svg width="18" height="12" viewBox="0 0 18 12" fill="none" xmlns="http://www.w3.org/2000/svg">
<path d="M11.2168 11.0165C11.1402 10.9844 11.0892 10.9522 11.0637 10.9201C11.0382 10.8879 11.0127 10.8477 10.9872 10.7995C10.9617 10.695 11.0637 10.4539 11.2933 10.0762C11.5229 9.69044 11.6887 9.45738 11.7907 9.37701C11.8418 9.33683 11.8928 9.31272 11.9438 9.30468C11.9693 9.29664 12.0203 9.2886 12.0969 9.28057C12.1989 9.29664 12.2882 9.32477 12.3647 9.36495C12.4157 9.40514 12.4795 9.44934 12.556 9.49756C12.7091 9.19216 12.8749 8.88275 13.0535 8.56932C13.2576 8.26392 13.4617 7.96656 13.6657 7.67724C13.8443 7.41203 14.0484 7.14681 14.278 6.8816C14.5076 6.61639 14.6606 6.33912 14.7372 6.0498C14.2015 5.39079 13.7295 4.7157 13.3213 4.02454C12.8877 3.32534 12.4157 2.64624 11.9055 1.98723C11.7525 2.0033 11.5994 2.01937 11.4463 2.03545C11.2933 2.05152 11.1275 2.06358 10.9489 2.07161C10.8469 1.93499 10.7193 1.78631 10.5662 1.62557C10.4132 1.47288 10.2984 1.32018 10.2219 1.16748C10.1963 1.13533 10.1836 1.10319 10.1836 1.07104C10.1836 1.04693 10.1963 1.02684 10.2219 1.01076C10.2219 0.962543 10.2474 0.914323 10.2984 0.866102C10.7321 0.761625 11.2805 0.697331 11.9438 0.673221C12.6326 0.64911 13.2066 0.633037 13.6657 0.625C13.7933 0.705367 13.9208 0.805827 14.0484 0.926378C14.1504 1.05497 14.2525 1.19561 14.3545 1.34831C14.5586 1.62156 14.7372 1.91892 14.8902 2.24038C15.0433 2.55382 15.1836 2.81099 15.3111 3.01191C15.4642 3.26909 15.6555 3.55841 15.8851 3.87988C16.0892 4.20135 16.306 4.4746 16.5356 4.69963C16.7142 4.86036 16.9055 5.01708 17.1096 5.16978C17.3137 5.32247 17.4795 5.48321 17.6071 5.65198C17.6581 5.73235 17.6836 5.79664 17.6836 5.84486C17.6836 5.90112 17.6708 5.96541 17.6453 6.03774C17.5433 6.23063 17.3902 6.41145 17.1861 6.58022C17.0076 6.749 16.8545 6.92179 16.727 7.09859C16.5739 7.32362 16.4081 7.54463 16.2295 7.76162C16.0509 7.97862 15.8851 8.19963 15.7321 8.42466C15.6045 8.58539 15.5025 8.75014 15.4259 8.91891C15.3239 9.08769 15.2091 9.25244 15.0816 9.41317C15.005 9.51765 14.9157 9.62615 14.8137 9.73866C14.7117 9.84314 14.6224 9.95164 14.5458 10.0641C14.4693 10.1847 14.4183 10.3093 14.3928 10.4379C14.3418 10.5664 14.278 10.687 14.2015 10.7995C14.1504 10.8879 14.0994 10.9522 14.0484 10.9924C13.9974 11.0326 13.9081 11.0687 13.7805 11.1009C13.4999 11.1009 13.0535 11.1089 12.4412 11.125C12.3392 11.125 12.2499 11.125 12.1734 11.125C11.6887 11.125 11.3698 11.0888 11.2168 11.0165Z" fill="black"/>
<path d="M0.550402 4.46071C2.2451 4.66071 4.01095 4.775 5.84794 4.80357C7.68494 4.83214 9.46373 4.80357 11.1843 4.71786C11.3266 4.71786 11.553 4.70357 11.8635 4.675C12.1739 4.64643 12.5103 4.60357 12.8725 4.54643C13.4029 4.48929 13.9204 4.44643 14.4249 4.41786C14.6707 4.38929 14.8712 4.375 15.0265 4.375C15.1817 4.375 15.2917 4.38929 15.3564 4.41786C15.421 4.76071 15.4663 5.23214 15.4922 5.83214C15.4922 5.91786 15.4922 6.00357 15.4922 6.08929C15.4922 6.575 15.4404 6.94643 15.3369 7.20357C15.2464 7.26071 14.9877 7.275 14.5608 7.24643C14.1338 7.21786 13.694 7.18929 13.2412 7.16071C12.9437 7.13214 12.672 7.10357 12.4262 7.075C12.1675 7.04643 11.9799 7.03214 11.8635 7.03214C10.7897 7.03214 9.17912 7.03214 7.03164 7.03214C6.52712 7.03214 6.02906 7.01786 5.53747 6.98929C5.04587 6.98929 4.55428 6.98929 4.06269 6.98929C3.72634 7.01786 3.39646 7.04643 3.07304 7.075C2.74963 7.10357 2.42621 7.13214 2.1028 7.16071C1.83113 7.21786 1.56593 7.26071 1.30719 7.28929C1.0614 7.34643 0.815603 7.375 0.569807 7.375C0.543934 7.375 0.518061 7.375 0.492188 7.375C0.492188 7.20357 0.492188 7.03214 0.492188 6.86071C0.492188 6.54643 0.498656 6.23214 0.511592 5.91786C0.537466 5.43214 0.550402 4.94643 0.550402 4.46071Z" fill="black"/>
</svg>
