<svg width="18" height="11" viewBox="0 0 18 11" fill="none" xmlns="http://www.w3.org/2000/svg">
<path d="M6.95805 10.6415C7.03458 10.6094 7.0856 10.5772 7.11111 10.5451C7.13662 10.5129 7.16213 10.4727 7.18764 10.4245C7.21315 10.32 7.11111 10.0789 6.88152 9.70121C6.65192 9.31544 6.48611 9.08238 6.38407 9.00201C6.33305 8.96183 6.28203 8.93772 6.23101 8.92968C6.2055 8.92164 6.15448 8.9136 6.07794 8.90557C5.9759 8.92164 5.88662 8.94977 5.81009 8.98995C5.75907 9.03014 5.69529 9.07434 5.61876 9.12256C5.4657 8.81716 5.29988 8.50775 5.12131 8.19432C4.91723 7.88892 4.71315 7.59156 4.50907 7.30224C4.3305 7.03703 4.12641 6.77181 3.89682 6.5066C3.66723 6.24139 3.51417 5.96412 3.43764 5.6748C3.97335 5.01579 4.44529 4.3407 4.85346 3.64954C5.28713 2.95034 5.75907 2.27124 6.26927 1.61223C6.42233 1.6283 6.57539 1.64437 6.72846 1.66045C6.88152 1.67652 7.04733 1.68858 7.2259 1.69661C7.32795 1.55999 7.4555 1.41131 7.60856 1.25057C7.76162 1.09788 7.87641 0.945178 7.95295 0.79248C7.97846 0.760333 7.99121 0.728186 7.99121 0.696039C7.99121 0.671929 7.97846 0.651837 7.95295 0.635764C7.95295 0.587543 7.92744 0.539323 7.87642 0.491102C7.44274 0.386625 6.89427 0.322331 6.23101 0.298221C5.54223 0.27411 4.96825 0.258037 4.50907 0.25C4.38152 0.330367 4.25397 0.430827 4.12642 0.551378C4.02437 0.679966 3.92233 0.820608 3.82029 0.973307C3.61621 1.24656 3.43764 1.54392 3.28458 1.86538C3.13152 2.17882 2.99121 2.43599 2.86366 2.63691C2.7106 2.89409 2.51927 3.18341 2.28968 3.50488C2.0856 3.82635 1.86876 4.0996 1.63917 4.32463C1.4606 4.48536 1.26927 4.64208 1.06519 4.79478C0.861109 4.94747 0.695292 5.10821 0.567741 5.27698C0.516721 5.35735 0.491211 5.42164 0.491211 5.46986C0.491211 5.52612 0.503966 5.59041 0.529476 5.66274C0.631517 5.85563 0.784578 6.03645 0.98866 6.20522C1.16723 6.374 1.32029 6.54679 1.44784 6.72359C1.6009 6.94862 1.76672 7.16963 1.94529 7.38662C2.12386 7.60362 2.28968 7.82463 2.44274 8.04966C2.57029 8.21039 2.67233 8.37514 2.74886 8.54391C2.8509 8.71269 2.9657 8.87744 3.09325 9.03817C3.16978 9.14265 3.25907 9.25115 3.36111 9.36366C3.46315 9.46814 3.55243 9.57664 3.62897 9.68915C3.7055 9.8097 3.75652 9.93427 3.78203 10.0629C3.83305 10.1914 3.89682 10.312 3.97335 10.4245C4.02437 10.5129 4.07539 10.5772 4.12641 10.6174C4.17743 10.6576 4.26672 10.6937 4.39427 10.7259C4.67488 10.7259 5.12131 10.7339 5.73356 10.75C5.8356 10.75 5.92488 10.75 6.00141 10.75C6.48611 10.75 6.80499 10.7138 6.95805 10.6415Z" fill="black"/>
<path d="M17.6244 4.08571C15.9297 4.28571 14.1639 4.4 12.3269 4.42857C10.4899 4.45714 8.71108 4.42857 6.99051 4.34286C6.84821 4.34286 6.62181 4.32857 6.31134 4.3C6.00086 4.27143 5.66451 4.22857 5.30228 4.17143C4.77188 4.11429 4.25441 4.07143 3.74989 4.04286C3.50409 4.01429 3.30357 4 3.14833 4C2.9931 4 2.88313 4.01429 2.81845 4.04286C2.75377 4.38571 2.70849 4.85714 2.68262 5.45714C2.68262 5.54286 2.68262 5.62857 2.68262 5.71429C2.68262 6.2 2.73436 6.57143 2.83786 6.82857C2.92841 6.88571 3.18714 6.9 3.61405 6.87143C4.04096 6.84286 4.48081 6.81429 4.93359 6.78571C5.23113 6.75714 5.5028 6.72857 5.74859 6.7C6.00733 6.67143 6.19491 6.65714 6.31134 6.65714C7.38507 6.65714 8.99568 6.65714 11.1432 6.65714C11.6477 6.65714 12.1457 6.64286 12.6373 6.61429C13.1289 6.61429 13.6205 6.61429 14.1121 6.61429C14.4485 6.64286 14.7783 6.67143 15.1018 6.7C15.4252 6.72857 15.7486 6.75714 16.072 6.78571C16.3437 6.84286 16.6089 6.88571 16.8676 6.91429C17.1134 6.97143 17.3592 7 17.605 7C17.6309 7 17.6567 7 17.6826 7C17.6826 6.82857 17.6826 6.65714 17.6826 6.48571C17.6826 6.17143 17.6761 5.85714 17.6632 5.54286C17.6373 5.05714 17.6244 4.57143 17.6244 4.08571Z" fill="black"/>
</svg>
