<svg width="42" height="28" viewBox="0 0 42 28" fill="none" xmlns="http://www.w3.org/2000/svg">
<path fill-rule="evenodd" clip-rule="evenodd" d="M33.8116 0.595653C32.6746 0.30814 31.5505 0.313188 30.3901 0.376215C27.7401 0.768385 25.7278 2.24545 24.1272 4.47105C23.4547 5.40596 22.7439 6.65697 22.6465 7.84457C22.6274 8.07775 22.6217 8.31786 22.6158 8.55983C22.6008 9.18523 22.5854 9.82308 22.339 10.3861C22.0872 10.9609 18.9774 14.5297 18.3842 15.1941C17.4153 15.0015 16.4617 14.7468 15.5232 14.43C15.4943 14.4964 15.4658 14.563 15.4372 14.6295L15.4372 14.6296L15.4371 14.6297L15.4371 14.6297C15.2626 15.0361 15.0886 15.4413 14.8578 15.8173C14.0469 15.4361 13.2384 15.0435 12.4296 14.6507L12.4295 14.6507L12.4295 14.6507C11.1027 14.0064 9.77491 13.3616 8.43429 12.7659C8.20117 12.6624 7.9762 12.5618 7.75899 12.4647C4.00196 10.7853 2.56691 10.1438 1.47539 12.9656C1.26204 13.5172 1.03529 13.982 0.837923 14.3866C-0.0328231 16.1717 -0.331847 16.7847 3.61294 18.503C4.51902 18.8977 5.40699 19.3432 6.29213 19.7872L6.39391 19.8382C6.73242 19.9919 7.07075 20.1479 7.40942 20.3041L7.4095 20.3041C8.6372 20.8701 9.86932 21.4382 11.1306 21.9057C12.1252 23.9317 14.1682 26.8243 16.3304 27.5336C18.0959 28.1129 20.2331 27.7941 21.8349 26.8634C23.1571 26.0952 24.5959 24.6297 25.0179 23.0729C25.1177 22.7054 25.1994 22.3305 25.2783 21.9576C25.8246 21.6269 26.3706 21.2933 26.8914 20.9194C27.1157 20.7583 27.3999 20.5162 27.7074 20.2541C28.3695 19.6898 29.14 19.0333 29.6547 18.8942C30.1854 18.7508 30.7959 18.8641 31.4032 18.9767L31.4032 18.9768C31.8293 19.0558 32.2538 19.1345 32.648 19.1241C36.3612 19.0261 40.0246 16.0955 40.9888 12.3037C41.0269 12.1569 41.0614 12.0093 41.0923 11.8608C41.1232 11.7122 41.1506 11.5629 41.1744 11.4128C41.1982 11.2628 41.2183 11.1122 41.2348 10.9611C41.2514 10.8102 41.2642 10.6587 41.2734 10.5069C41.2827 10.3551 41.2883 10.2033 41.2903 10.0513C41.2922 9.89918 41.2904 9.74719 41.2851 9.59532C41.2797 9.44333 41.2708 9.2916 41.2581 9.14012C41.2455 8.98865 41.2292 8.83757 41.2094 8.68688C41.1894 8.53631 41.1658 8.38632 41.1386 8.23692C41.1116 8.08753 41.0809 7.93891 41.0465 7.79107C41.0123 7.64335 40.9745 7.49661 40.9332 7.35085C40.8919 7.20495 40.8471 7.06029 40.7989 6.91686C40.7506 6.77343 40.6989 6.63135 40.6437 6.49064C40.5886 6.34993 40.5302 6.21078 40.4684 6.07318C40.4066 5.93546 40.3415 5.79949 40.2732 5.66526C40.2048 5.53104 40.1333 5.39869 40.0586 5.26822C38.6824 2.84751 36.4187 1.25549 33.8116 0.595653ZM32.3592 3.94604C32.2673 3.93982 32.1752 3.93593 32.083 3.93437C31.9912 3.93281 31.8995 3.9336 31.8078 3.93671C31.7162 3.93995 31.6246 3.94546 31.5332 3.95324C31.4417 3.96115 31.3505 3.97134 31.2595 3.98379C31.1685 3.99624 31.0779 4.01109 30.9876 4.02833C30.8973 4.04545 30.8075 4.0649 30.7181 4.08669C30.6288 4.10848 30.54 4.13247 30.4517 4.15867C30.3635 4.18499 30.2759 4.21358 30.1889 4.24445C30.1021 4.27518 30.016 4.30812 29.9307 4.34327C29.8453 4.37854 29.7608 4.41596 29.6772 4.45552C29.5936 4.49507 29.511 4.53669 29.4294 4.5804C29.3476 4.6241 29.267 4.66995 29.1876 4.71794C29.1081 4.76579 29.0297 4.81565 28.9524 4.86752C28.8753 4.9194 28.7994 4.97328 28.7249 5.02918C28.6502 5.08494 28.5769 5.14259 28.5049 5.20212C28.433 5.26165 28.3624 5.32298 28.2933 5.38614C28.2244 5.4493 28.1568 5.5142 28.0907 5.58086C28.0247 5.64739 27.9603 5.7156 27.8975 5.7855C27.8346 5.8554 27.7735 5.92693 27.7141 6.00007C27.6546 6.07309 27.5969 6.14759 27.5408 6.22359C27.4849 6.29958 27.4307 6.37694 27.3784 6.45566C27.326 6.53451 27.2755 6.61458 27.2269 6.6959C27.1783 6.77734 27.1316 6.85996 27.087 6.94374C27.0422 7.02738 26.9995 7.11219 26.9588 7.19818C26.9179 7.28416 26.8792 7.37111 26.8425 7.45904C26.8059 7.54697 26.7713 7.63574 26.7386 7.72535C26.7061 7.8151 26.6757 7.90562 26.6475 7.99691C26.6192 8.08808 26.5931 8.17996 26.5691 8.27256C26.5452 8.36516 26.5234 8.45834 26.5038 8.5521C26.4842 8.64586 26.4668 8.74001 26.4515 8.83455C26.4364 8.92909 26.4234 9.02402 26.4126 9.11934C26.402 9.21466 26.3934 9.31017 26.3871 9.40588C26.3808 9.50146 26.3768 9.59723 26.375 9.6932C26.3733 9.78904 26.3738 9.88494 26.3765 9.98091C26.3791 10.0767 26.384 10.1725 26.3912 10.2682C26.3985 10.3638 26.408 10.4592 26.4197 10.5544C26.4314 10.6494 26.4452 10.7442 26.4614 10.8386C26.4775 10.9331 26.4958 11.0271 26.5163 11.1205C26.5367 11.214 26.5594 11.3069 26.5844 11.3992C26.6092 11.4916 26.6362 11.5832 26.6655 11.6743C26.6947 11.7652 26.7259 11.8553 26.7593 11.9447C26.7927 12.034 26.8281 12.1225 26.8657 12.21C26.9032 12.2975 26.9428 12.3841 26.9844 12.4695C27.026 12.555 27.0695 12.6393 27.1151 12.7226C27.1606 12.806 27.208 12.8881 27.2574 12.9689C27.3069 13.0497 27.3582 13.1292 27.4113 13.2074C27.4644 13.2856 27.5193 13.3624 27.576 13.4379C27.6327 13.5132 27.6912 13.5871 27.7515 13.6596C27.8116 13.732 27.8735 13.8028 27.937 13.8721C28.0005 13.9413 28.0656 14.0089 28.1322 14.0748C28.1988 14.1406 28.267 14.2048 28.3367 14.2672C28.4064 14.3297 28.4775 14.3903 28.5499 14.449C28.6225 14.5078 28.6964 14.5647 28.7716 14.6196C28.8467 14.6746 28.9232 14.7277 29.0008 14.7788C29.0785 14.8299 29.1573 14.8789 29.2373 14.9258C29.3173 14.9729 29.3983 15.0179 29.4803 15.0608C29.5625 15.1038 29.6455 15.1445 29.7295 15.1832C29.8135 15.2217 29.8983 15.2581 29.9841 15.2925C30.0697 15.3267 30.1561 15.3588 30.2433 15.3886C30.3305 15.4186 30.4184 15.4462 30.5069 15.4715C30.5954 15.4969 30.6844 15.52 30.774 15.5407C30.8635 15.5616 30.9535 15.5801 31.044 15.5962C31.1344 15.6124 31.2252 15.6263 31.3164 15.6378C31.4075 15.6493 31.4988 15.6585 31.5903 15.6654C31.6817 15.6723 31.7733 15.6768 31.8651 15.679C31.9572 15.6812 32.0493 15.6811 32.1415 15.6785C32.2335 15.6759 32.3255 15.6709 32.4174 15.6637C32.5094 15.6564 32.601 15.6468 32.6923 15.6347C32.7837 15.6228 32.8748 15.6084 32.9656 15.5917C33.0563 15.575 33.1466 15.556 33.2366 15.5347C33.3264 15.5133 33.4156 15.4897 33.5043 15.4639C33.5932 15.438 33.6812 15.4097 33.7686 15.3793C33.856 15.3488 33.9427 15.3161 34.0285 15.2812C34.1144 15.2463 34.1994 15.2093 34.2836 15.17C34.3677 15.1307 34.4509 15.0892 34.533 15.0457C34.6152 15.0021 34.6964 14.9564 34.7764 14.9087C34.8564 14.861 34.9352 14.8113 35.0129 14.7595C35.0905 14.7076 35.167 14.6539 35.2421 14.5982C35.3173 14.5425 35.3911 14.4848 35.4636 14.4253C35.536 14.3658 35.607 14.3044 35.6766 14.2413C35.7462 14.1781 35.8143 14.1132 35.8808 14.0466C35.9473 13.9799 36.0121 13.9116 36.0754 13.8415C36.1387 13.7716 36.2003 13.7 36.2602 13.6268C36.3201 13.5536 36.3783 13.479 36.4347 13.4029C36.4912 13.3267 36.5457 13.2492 36.5985 13.1702C36.6512 13.0912 36.7021 13.0109 36.7511 12.9294C36.8001 12.8478 36.8471 12.765 36.8921 12.681C36.9373 12.5969 36.9804 12.5118 37.0214 12.4256C37.0625 12.3394 37.1015 12.2522 37.1385 12.1639C37.1754 12.0757 37.2103 11.9866 37.2431 11.8966C37.2759 11.8066 37.3066 11.7158 37.335 11.6241C37.3635 11.5325 37.3899 11.4403 37.4141 11.3473C37.4383 11.2543 37.4602 11.1608 37.4799 11.0668C37.4997 10.9728 37.5172 10.8782 37.5326 10.7831C37.5479 10.6882 37.5609 10.5929 37.5717 10.4972C37.5826 10.4016 37.5912 10.3058 37.5975 10.2097C37.6039 10.1136 37.6079 10.0174 37.6096 9.921C37.6114 9.82464 37.6109 9.72835 37.6081 9.63212C37.6054 9.5359 37.6005 9.43973 37.5933 9.34363C37.5859 9.24766 37.5764 9.15189 37.5646 9.05631C37.5528 8.96074 37.5388 8.86554 37.5225 8.77074C37.5063 8.67594 37.4878 8.58159 37.4671 8.4877C37.4464 8.39394 37.4235 8.3007 37.3984 8.20797C37.3734 8.11525 37.3461 8.02323 37.3167 7.93193C37.2873 7.84076 37.2558 7.75032 37.222 7.66057C37.1884 7.57096 37.1527 7.48225 37.1148 7.39445C37.077 7.30652 37.0371 7.2197 36.9952 7.13398C36.9533 7.04826 36.9093 6.96364 36.8633 6.88012C36.8174 6.7966 36.7695 6.71432 36.7198 6.63327C36.67 6.55221 36.6184 6.47252 36.5648 6.39419C36.5112 6.31573 36.4559 6.23876 36.3988 6.16328C36.3416 6.08768 36.2827 6.01363 36.222 5.94114C36.1614 5.86864 36.099 5.79769 36.035 5.72831C35.9711 5.65906 35.9056 5.59143 35.8383 5.52542C35.7712 5.45954 35.7026 5.39541 35.6323 5.33303C35.5621 5.27052 35.4905 5.20996 35.4174 5.15134C35.3445 5.09259 35.2701 5.03579 35.1943 4.98094C35.1186 4.92595 35.0417 4.87297 34.9636 4.822C34.8853 4.77117 34.8059 4.72228 34.7254 4.67533C34.6449 4.62852 34.5633 4.58378 34.4807 4.54111C34.3982 4.49844 34.3146 4.45792 34.23 4.41953C34.1456 4.38114 34.0602 4.34496 33.974 4.31099C33.8878 4.27701 33.8008 4.2453 33.7131 4.21586C33.6254 4.18642 33.5371 4.15919 33.4481 4.13416C33.3591 4.10926 33.2695 4.08663 33.1794 4.06627C33.0894 4.04591 32.9989 4.02788 32.9079 4.01219C32.8171 3.9965 32.726 3.98314 32.6344 3.97212C32.5429 3.96109 32.4511 3.9524 32.3592 3.94604ZM21.193 17.6996C21.049 17.6629 20.9132 17.6432 20.7658 17.6343C20.7649 17.6513 20.7638 17.6683 20.7627 17.6854C20.7604 17.7195 20.7581 17.7537 20.758 17.788C20.7554 18.1808 20.9485 18.595 21.1597 19.0481C21.6395 20.0773 22.2127 21.3069 20.7971 22.9406C20.1607 23.6752 19.1756 24.1442 18.2282 24.1679C17.5989 24.1836 16.9609 23.9497 16.3258 23.7168C15.8983 23.56 15.4722 23.4038 15.0509 23.3244C15.2984 23.9255 15.5258 24.4364 15.9891 24.8956C17.6223 25.4253 19.1331 25.587 20.6994 24.7272C20.7575 24.6946 20.8149 24.6605 20.8713 24.6249C20.9277 24.5892 20.9833 24.552 21.038 24.5134C21.0926 24.4749 21.1463 24.4348 21.199 24.3932C21.2516 24.3517 21.3032 24.3088 21.3538 24.2646C21.4044 24.2202 21.4539 24.1746 21.5021 24.1276C21.5505 24.0807 21.5976 24.0325 21.6435 23.9831C21.6894 23.9336 21.7342 23.8829 21.7777 23.831C21.8211 23.7791 21.8632 23.7261 21.904 23.6721C21.945 23.6178 21.9845 23.5626 22.0226 23.5063C22.0608 23.45 22.0975 23.3928 22.1327 23.3345C22.1681 23.2763 22.202 23.2172 22.2345 23.1571C22.2669 23.0971 22.2978 23.0362 22.3272 22.9745C22.3566 22.9127 22.3845 22.8503 22.4109 22.7872C22.4372 22.7239 22.462 22.66 22.4852 22.5955C22.5084 22.5309 22.53 22.4658 22.5501 22.4C22.5701 22.3343 22.5885 22.2681 22.6052 22.2014C22.8812 21.1344 22.8726 19.6961 22.3425 18.7254C22.1041 18.2893 21.675 17.8234 21.193 17.6996Z" fill="#07151F"/>
<path d="M36 9C36 11.2091 34.2091 13 32 13C29.7909 13 28 11.2091 28 9C28 6.79086 29.7909 5.5 32 5.5C34.2091 5.5 36 6.79086 36 9Z" fill="#07151F"/>
</svg>
