<svg width="52" height="52" viewBox="0 0 52 52" fill="none" xmlns="http://www.w3.org/2000/svg">
<path d="M26.0003 0.166626C29.3928 0.166626 32.7521 0.834825 35.8863 2.13307C39.0206 3.43132 41.8684 5.33419 44.2673 7.73303C46.6661 10.1319 48.569 12.9797 49.8672 16.114C51.1655 19.2482 51.8337 22.6075 51.8337 26C51.8337 32.8514 49.1119 39.4222 44.2673 44.2669C39.4226 49.1116 32.8517 51.8333 26.0003 51.8333C14.117 51.8333 4.17116 43.8766 1.09699 33.0525L10.9912 37.1341C11.3315 38.7883 12.2316 40.2746 13.5397 41.3427C14.8478 42.4108 16.484 42.9955 18.1728 42.9983C22.2028 42.9983 25.4837 39.7175 25.4837 35.6875V35.3516L34.267 29.0741H34.4737C39.847 29.0741 44.2128 24.7083 44.2128 19.335C44.2128 13.9616 39.847 9.59579 34.4737 9.59579C29.1003 9.59579 24.7087 13.9616 24.7087 19.335V19.4641L18.5862 28.4025L18.1728 28.3766C16.6487 28.3766 15.2278 28.8416 14.0653 29.6425L0.166992 23.9333C1.27783 10.6291 12.3862 0.166626 26.0003 0.166626ZM16.3903 39.3558C18.457 40.2083 20.8337 39.2525 21.6862 37.1858C22.5387 35.1191 21.557 32.7683 19.542 31.9158L16.2353 30.5466C17.5012 30.0816 18.922 30.0558 20.2653 30.6241C21.6345 31.1666 22.6937 32.2258 23.2362 33.595C23.8045 34.9383 23.8045 36.4366 23.2362 37.78C22.1253 40.57 18.8445 41.9133 16.0545 40.7508C14.7628 40.2083 13.7812 39.2266 13.2387 38.0641L16.3903 39.3558ZM40.9837 19.335C40.9837 22.9258 38.0645 25.845 34.4737 25.845C32.7516 25.8381 31.1024 25.1492 29.8871 23.9291C28.6718 22.709 27.9895 21.0571 27.9895 19.335C27.9861 18.4825 28.1515 17.6378 28.4761 16.8495C28.8008 16.0613 29.2782 15.3451 29.881 14.7423C30.4838 14.1396 31.2 13.6621 31.9882 13.3374C32.7765 13.0128 33.6212 12.8474 34.4737 12.8508C36.1958 12.8508 37.8477 13.5331 39.0678 14.7484C40.2879 15.9637 40.9768 17.6129 40.9837 19.335ZM29.617 19.335C29.617 22.0216 31.787 24.2175 34.4995 24.2175C37.1862 24.2175 39.3562 22.0216 39.3562 19.335C39.3562 16.6483 37.1862 14.4525 34.4995 14.4525C31.787 14.4525 29.617 16.6483 29.617 19.335Z" fill="black"/>
</svg>
