<svg width="30" height="34" viewBox="0 0 30 34" fill="none" xmlns="http://www.w3.org/2000/svg">
<path d="M12.884 0.379536C14.4722 0.243854 16.0826 0.504092 17.6667 0.604C18.6113 0.663551 19.5876 0.626904 20.5219 0.754297C20.6049 0.81603 20.6149 0.832717 20.6429 0.931316C20.779 1.4098 20.4566 2.13904 20.226 2.5415C20.7179 2.48719 21.1973 2.39731 21.6811 2.29304C21.5952 2.55034 21.5201 2.81308 21.4402 3.07245C21.5534 3.57755 21.6806 4.05887 21.9095 4.52427C22.6908 6.1121 24.3059 7.20977 25.9741 7.63699C26.6281 7.80441 27.2768 7.83921 27.9251 8.05625C27.8192 8.30515 27.6535 8.58862 27.7114 8.86304C27.9227 9.08096 28.8099 9.01988 29.1756 9.07823C29.0515 10.0759 28.7952 11.0579 28.6186 12.0474C28.4546 12.9659 28.3751 13.8887 28.3023 14.8185C26.8501 14.1963 25.4846 13.5976 23.9254 13.2977L23.9253 12.5116C23.6411 12.6346 23.3752 12.7984 23.1063 12.9525C22.0885 12.4117 21.1401 11.7222 20.1277 11.1681C20.0692 12.0588 20.1315 12.9698 20.1428 13.8627C20.1509 15.9324 20.2229 17.9999 20.3586 20.0651C20.0544 20.2907 19.7716 20.5278 19.5371 20.8294C19.7369 20.9536 19.9951 21.0824 20.1436 21.2676C20.2549 21.4064 20.326 21.588 20.3529 21.7644C20.4536 22.4246 20.2851 24.261 20.1933 25.0098C20.0187 26.4337 19.7217 26.924 19.0213 28.116C18.259 29.4134 17.6907 30.1787 16.4731 31.1271C15.9923 31.5014 14.4245 32.6103 13.8015 32.5229C13.6031 32.3569 13.4742 32.0226 13.3512 31.7927C12.8214 32.3276 12.2574 32.8293 11.7062 33.3412C10.8012 33.0974 9.92757 33.0562 9.01691 32.893C6.64819 32.4685 4.50715 31.5054 2.90011 29.6454C1.23259 27.7017 1.24532 26.3121 0.175598 24.2059C0.262298 22.7293 0.264227 20.8636 0.785922 19.4797C0.953006 19.0367 1.20475 18.6135 1.42546 18.1953C1.74368 17.5923 2.07903 17.0095 2.48469 16.4619C3.51246 15.0742 5.63692 13.2176 7.37861 12.9925C7.93959 12.92 8.45165 12.695 8.98715 12.5194C9.3104 12.4131 9.63847 12.3256 9.97135 12.2569C10.3042 12.1883 10.6399 12.1389 10.9782 12.1088C11.0195 12.4389 11.0003 12.7735 11.0312 13.105C11.0493 13.299 11.0799 13.532 11.2543 13.6494C11.5706 13.8622 12.0099 13.6808 12.3407 13.5947C12.4299 15.0735 12.4462 17.6891 11.98 19.0652C11.0783 18.5448 10.5383 18.1498 9.496 17.904C8.7749 18.449 7.84422 19.191 7.31846 19.9362C6.88892 20.5449 6.55657 21.3381 6.19104 21.9971C6.23407 22.6266 6.26993 23.2525 6.44964 23.8607C6.60228 24.3773 6.82202 24.8664 6.95111 25.3917L6.97027 25.4715C7.80558 26.1328 8.76184 26.5711 9.69905 27.0589C10.3221 27.006 10.9748 26.9866 11.5878 26.8617C11.8657 26.8052 12.1287 26.7148 12.3581 26.5413C12.9349 26.105 13.6612 24.7814 14.0848 24.1435C14.1279 22.5664 14.1595 20.989 14.1798 19.4113C14.1828 18.7027 14.1377 17.9951 14.1397 17.2871C14.1413 16.722 14.1921 16.1556 14.1853 15.591C14.1781 14.9956 13.9879 14.4117 13.9667 13.8148C13.924 12.613 13.8902 11.3724 13.9034 10.1696C13.9096 9.61812 13.9604 9.06896 13.9552 8.51696C13.9446 7.3869 13.9047 6.25563 13.8762 5.12579C13.8553 4.28901 13.9328 3.30051 13.7103 2.49548C13.5302 1.84379 13.1316 1.22057 12.6599 0.752552C12.5937 0.686892 12.5594 0.652318 12.5347 0.557755C12.6477 0.430798 12.7251 0.427199 12.884 0.379536Z" fill="#07151F"/>
</svg>
