<svg width="33" height="29" viewBox="0 0 33 29" fill="none" xmlns="http://www.w3.org/2000/svg">
<path d="M21.0837 0.341187C22.1755 0.486194 23.2837 0.46164 24.3812 0.528511C25.6633 0.606648 26.919 0.796569 28.2082 0.756562C28.9588 0.733309 31.35 0.398816 31.8333 0.552489L31.8823 0.670772C31.6406 1.74475 30.6089 2.67661 29.9915 3.55431C29.6931 3.9785 29.4442 4.44992 29.1168 4.85129C28.5986 5.48663 28.0224 6.0655 27.5113 6.71168C26.6427 7.80978 25.8893 8.97677 25.0412 10.0848C24.1017 11.3121 22.9601 12.5449 22.193 13.8812C22.1793 13.9053 22.1661 13.9297 22.1525 13.954C23.4476 16.0025 25.1275 17.8494 26.6314 19.7424C27.919 21.3633 29.1124 23.0854 30.3609 24.7414C30.924 25.4882 32.4957 27.3772 32.6992 28.1639L32.6094 28.2633C31.7796 28.5253 26.7557 28.0725 26.0282 27.7012C25.8652 27.618 25.6984 27.5432 25.5329 27.4653C24.5176 27.68 23.4993 27.8564 22.4652 27.9444C21.4124 26.3966 20.3254 24.8717 19.2537 23.3374C18.443 22.1768 17.6585 20.9439 16.7099 19.8956C15.6686 21.2904 14.7651 22.7982 13.7016 24.1803C13.2365 24.7846 12.5535 25.2036 12.3207 25.964C12.2601 26.1621 12.1946 26.3412 12.1073 26.5287L12.0765 26.5934L11.0763 28.0032C8.82479 27.9655 6.57406 27.9924 4.3241 28.0838C3.09074 28.1395 1.94999 28.4002 0.699219 28.3074C1.43697 27.1005 2.42903 26.066 3.26463 24.9318C3.87366 24.105 4.4463 23.2519 5.07416 22.4393C6.46356 20.6408 7.91811 18.9076 9.24931 17.0615C10.0271 15.9829 10.7357 14.8428 11.4627 13.7279C10.9531 12.9331 10.1448 12.2624 10.0327 11.2826C9.43863 10.7067 8.865 10.0785 8.36996 9.41208C8.02629 8.94947 7.71547 8.4486 7.34122 8.01126C6.93482 7.53609 6.47858 7.10742 6.076 6.62763C5.01328 5.36112 4.03056 4.0302 2.99431 2.7429C2.449 2.06553 1.75274 1.38859 1.34238 0.618921C2.8469 0.579347 4.34124 0.73952 5.8442 0.75844C6.39815 0.765517 6.86388 0.423361 7.4031 0.418162C8.21618 0.410507 9.05815 0.465536 9.86741 0.542951C10.7459 0.627153 11.6033 0.790942 12.4846 0.657056C13.3071 3.37652 14.9708 5.50642 16.7384 7.66275C17.2511 7.07045 17.685 6.39697 18.1513 5.76625C19.2457 4.28541 20.3126 2.85281 21.246 1.25499C21.1528 0.943308 21.1021 0.666586 21.0837 0.341187Z" fill="#07151F"/>
</svg>
