<svg width="34" height="24" viewBox="0 0 34 24" fill="none" xmlns="http://www.w3.org/2000/svg">
<path fill-rule="evenodd" clip-rule="evenodd" d="M12.027 1.08845C11.9254 0.708806 11.8237 0.328806 11.7862 0.333789L11.6814 0.353318C11.3634 0.410513 11.0564 0.411419 10.7488 0.412327C10.5205 0.413 10.2919 0.413675 10.0584 0.437361C9.66689 0.477084 9.27571 0.54633 8.88469 0.615547C8.59412 0.666981 8.30365 0.718398 8.01321 0.757673C7.84278 0.780711 7.6659 0.803449 7.48405 0.826826C5.47602 1.08496 2.86287 1.42088 1.6666 3.09604C0.683826 4.47225 0.488264 7.73137 0.354489 9.96077C0.329517 10.3769 0.306698 10.7572 0.281313 11.0827C0.24925 11.4943 0.199927 11.9047 0.1506 12.3151C0.112785 12.6298 0.0749683 12.9444 0.0449219 13.2597C0.2533 13.4695 0.464839 13.676 0.679537 13.8793C0.648094 13.936 0.616887 13.993 0.585668 14.0499C0.48949 14.2254 0.393194 14.4011 0.28952 14.5719C0.232878 15.811 0.754327 19.1269 1.18781 20.2895C1.38143 20.8086 1.65908 21.3059 2.03165 21.7182C2.81538 22.5858 4.19974 22.8933 5.32586 22.9444C5.53325 22.9538 5.74123 22.9549 5.94917 22.956C6.2206 22.9575 6.49197 22.9589 6.76189 22.9788C7.24431 23.0141 7.77095 22.9629 8.2969 22.9117C8.80059 22.8628 9.30364 22.8139 9.7666 22.8411C10.1761 22.8651 10.5435 22.9632 10.91 23.061C11.2943 23.1636 11.6776 23.2659 12.107 23.2822C12.7091 23.305 13.312 23.3341 13.9154 23.3632C15.1593 23.4233 16.4048 23.4834 17.6474 23.4889C18.0129 23.4905 18.3526 23.3858 18.6887 23.2822C19.0242 23.1788 19.356 23.0765 19.7061 23.0823C20.0004 23.0872 20.2882 23.1565 20.5789 23.2264C20.8724 23.2971 21.1689 23.3684 21.4785 23.3751C21.7908 23.3641 22.1029 23.3548 22.4149 23.3455C23.579 23.3108 24.741 23.2761 25.9017 23.153C26.0317 23.1392 26.3084 23.0927 26.618 23.0407C27.1688 22.9482 27.8236 22.8383 27.9414 22.8636C28.0207 22.8807 28.0926 22.9238 28.1657 22.9677C28.2588 23.0234 28.3539 23.0805 28.4688 23.0867C29.6306 23.1499 31.6161 22.2175 32.3935 21.3511C32.8018 20.896 33.029 20.327 33.1748 19.7409C33.4315 18.709 33.4794 17.5518 33.5249 16.4529C33.5351 16.2056 33.5452 15.9612 33.5575 15.7219C33.5841 15.2079 33.3769 15.1197 33.1678 15.0308C32.9595 14.9421 32.7495 14.8527 32.7666 14.3412C32.7854 13.6625 32.9748 12.6619 33.1719 11.6203C33.4271 10.272 33.6952 8.85514 33.6232 7.97921C33.6127 7.8371 33.6023 7.67725 33.591 7.50352C33.4863 5.8945 33.3041 3.09577 32.2904 2.18653C31.6813 1.64023 30.8177 1.36188 30.0307 1.20363C29.1264 1.02186 28.22 0.964234 27.3084 0.906283C26.998 0.88655 26.687 0.866779 26.3753 0.842055C26.2661 0.833404 26.157 0.824731 26.0478 0.816059C24.3791 0.683477 22.7112 0.550951 21.0374 0.495617C19.9562 0.459883 18.8751 0.456505 17.7941 0.453126C17.1126 0.450996 16.4311 0.448866 15.7497 0.438631C15.1053 0.429005 14.5228 0.783227 13.9381 1.13873C13.3994 1.4663 12.859 1.79495 12.2666 1.84107C12.229 1.8438 12.128 1.4663 12.027 1.08845ZM13.6983 6.49882C13.3042 6.21879 12.8647 5.9064 12.4274 5.83154C12.1904 6.39867 12.2817 6.97667 12.3735 7.55731C12.4205 7.8547 12.4676 8.15278 12.4708 8.45045C12.473 8.65552 12.4158 8.84979 12.3584 9.04477C12.3024 9.2347 12.2463 9.4253 12.2447 9.62721C12.24 10.2264 12.2712 10.8281 12.3024 11.4292C12.3226 11.8176 12.3427 12.2058 12.3531 12.593C12.4043 14.4865 12.2837 16.2752 11.9346 18.1359C12.3163 17.9912 12.6674 17.7775 13.0163 17.5651C13.0911 17.5196 13.1658 17.4741 13.2407 17.4294C13.7541 17.1227 14.112 16.6149 14.4692 16.1081C14.8431 15.5775 15.2164 15.0479 15.7666 14.7512C16.1295 14.5555 16.6689 14.6567 17.2058 14.7576C17.7516 14.86 18.2948 14.962 18.6475 14.7512C18.728 14.7024 18.8635 14.6219 19.0377 14.5182C20.1365 13.8647 22.7772 12.294 22.8983 12.0078C22.7207 11.8979 22.5307 11.8082 22.3407 11.7185C22.2212 11.6621 22.1018 11.6057 21.9855 11.5443C21.6036 11.3428 21.2288 11.1245 20.8548 10.9066C20.7368 10.8379 20.6189 10.7692 20.5008 10.7011C18.2914 9.43748 16.1236 8.10617 13.9974 6.70717C13.9013 6.64316 13.8014 6.5721 13.6983 6.49882Z" fill="#07151F"/>
</svg>
