<svg width="116" height="133" viewBox="0 0 116 133" fill="none" xmlns="http://www.w3.org/2000/svg">
<g clip-path="url(#clip0_2001_511)">
<g filter="url(#filter0_d_2001_511)">
<path d="M74.4122 14.6065L84.979 0.599529L59.6494 17.0254L55.2033 28.0885L74.4122 14.6065Z" fill="url(#paint0_linear_2001_511)"/>
<path d="M74.4103 14.6082L84.9767 0.600515L89.6488 25.7139L79.8794 32.436L74.4103 14.6082Z" fill="url(#paint1_linear_2001_511)"/>
<path d="M90.4503 45.0103L101.899 38.5766L89.6489 25.7123L79.8795 32.4345L90.4503 45.0103Z" fill="url(#paint2_linear_2001_511)"/>
<path d="M90.4502 45.0111L101.898 38.5774L101.429 79.1238L89.5241 72.5123L90.4502 45.0111Z" fill="url(#paint3_linear_2001_511)"/>
<path d="M90.4497 45.0101L79.8789 32.4342L82.0403 52.9174L89.5237 72.5112L90.4497 45.0101Z" fill="url(#paint4_linear_2001_511)"/>
<path d="M78.544 92.293L85.6948 99.4432L101.429 79.1228L89.5234 72.5113L78.544 92.293Z" fill="url(#paint5_linear_2001_511)"/>
<path d="M89.5251 72.5115L78.5457 92.2931L48.9026 109.989L32.0512 107.809L82.0417 52.9176L89.5251 72.5115Z" fill="url(#paint6_linear_2001_511)"/>
<path d="M78.5453 92.2929L85.6961 99.4431L54.1024 125.705L48.8993 109.988L78.5453 92.2929Z" fill="url(#paint7_linear_2001_511)"/>
<path d="M31.9972 107.713L29.4974 122.355L54.103 125.705L48.9023 109.988L31.9972 107.713Z" fill="url(#paint8_linear_2001_511)"/>
<path d="M50.3972 26.7091L47.0173 17.5179L59.6471 17.0257L55.2011 28.0887L50.3972 26.7091Z" fill="url(#paint9_linear_2001_511)"/>
<path d="M50.3973 26.7093L47.014 17.5175L10.0893 47.3037L19.6056 51.6078L50.3973 26.7093Z" fill="url(#paint10_linear_2001_511)"/>
<path d="M50.3984 26.7102L55.2022 28.0898L26.5736 79.3585L20.0644 77.0093L19.6067 51.6086L50.3984 26.7102Z" fill="url(#paint11_linear_2001_511)"/>
<path d="M74.4118 14.6066L55.203 28.0885L26.5743 79.3573L24.6653 89.3867L32.0556 107.809L40.5851 98.5203L82.0423 52.9175L79.8809 32.4344L74.4118 14.6066Z" fill="url(#paint12_linear_2001_511)"/>
<path d="M79.8805 32.4371L82.0418 52.9194L82.0408 52.9194L89.5241 72.5124L78.5447 92.2941L48.9017 109.99L32.0503 107.811L32.053 107.805L24.6654 89.3887L26.5738 79.3596L26.5737 79.3587L20.0644 77.0094L19.6067 51.6086L50.3983 26.7099L55.2026 28.0896L55.2017 28.0906L74.4118 14.6089L79.8805 32.4371Z" fill="url(#paint13_radial_2001_511)" fill-opacity="0.5"/>
<path d="M22.5902 52.249L21.8773 75.472L29.0776 78.0719L26.7107 88.6749L33.9156 105.459L48.2513 108.038L77.0826 90.3534L89.5197 72.5195L78.5458 92.2931L48.5784 109.989L32.0563 107.809L32.0564 107.81L32.0553 107.809L32.0514 107.809L32.0532 107.804L24.6666 89.3877L26.5749 79.3587L26.5749 79.3577L20.0655 77.0084L19.6079 51.6076L50.3994 26.709L22.5902 52.249Z" fill="url(#paint14_linear_2001_511)" fill-opacity="0.2"/>
<path d="M20.0642 77.0072L11.6255 77.653L10.0903 47.3024L19.6065 51.6065L20.0642 77.0072Z" fill="url(#paint15_linear_2001_511)"/>
<path d="M20.0638 77.0085L11.6253 77.6544L17.8541 83.9282L26.488 79.3957L20.0638 77.0085Z" fill="url(#paint16_linear_2001_511)"/>
<path d="M26.5738 79.3575L26.5726 79.3581L24.6637 89.3866L15.8294 96.4416L17.854 83.9274L26.5726 79.3581L26.5728 79.3572L26.5738 79.3575Z" fill="url(#paint17_linear_2001_511)"/>
<path d="M19.2396 122.016L32.0542 107.809L24.6658 89.3874L15.8357 96.4433L19.2396 122.016Z" fill="url(#paint18_linear_2001_511)"/>
<path d="M19.2395 122.016L32.0541 107.81L29.7002 122.389L19.2395 122.016Z" fill="url(#paint19_linear_2001_511)"/>
</g>
</g>
<g clip-path="url(#clip1_2001_511)">
<g filter="url(#filter1_ddi_2001_511)">
<path d="M50.1056 50.5496L56.209 53.6143L48.2557 61.1351L39.5086 55.8259C39.5086 55.8259 35.2139 65.6828 34.0034 72.2994C32.7931 78.9159 34.8948 87.3826 34.8948 87.3826L39.638 100.011L50.9427 95.1353L64.5001 87.6322L73.4165 59.2133L62.4999 66.2491L59.2528 59.7276L73.4708 50.7927L64.7682 49.3526L75.4035 29.8765L50.1056 50.5496ZM42.1262 73.3419C45.1858 69.2755 47.6446 61.9477 55.7833 65.0158C63.9217 68.0841 59.9737 76.4789 56.5681 81.9183C53.1625 87.3575 45.8033 91.9635 43.9254 91.6506C42.0475 91.3371 39.0667 77.4083 42.1262 73.3419Z" fill="white"/>
</g>
</g>
<defs>
<filter id="filter0_d_2001_511" x="7.48898" y="0.599487" width="97.01" height="130.306" filterUnits="userSpaceOnUse" color-interpolation-filters="sRGB">
<feFlood flood-opacity="0" result="BackgroundImageFix"/>
<feColorMatrix in="SourceAlpha" type="matrix" values="0 0 0 0 0 0 0 0 0 0 0 0 0 0 0 0 0 0 127 0" result="hardAlpha"/>
<feOffset dy="2.60035"/>
<feGaussianBlur stdDeviation="1.30018"/>
<feComposite in2="hardAlpha" operator="out"/>
<feColorMatrix type="matrix" values="0 0 0 0 0.216585 0 0 0 0 0.154565 0 0 0 0 0.0973153 0 0 0 0.25 0"/>
<feBlend mode="normal" in2="BackgroundImageFix" result="effect1_dropShadow_2001_511"/>
<feBlend mode="normal" in="SourceGraphic" in2="effect1_dropShadow_2001_511" result="shape"/>
</filter>
<filter id="filter1_ddi_2001_511" x="31.0781" y="27.3268" width="46.875" height="75.2341" filterUnits="userSpaceOnUse" color-interpolation-filters="sRGB">
<feFlood flood-opacity="0" result="BackgroundImageFix"/>
<feColorMatrix in="SourceAlpha" type="matrix" values="0 0 0 0 0 0 0 0 0 0 0 0 0 0 0 0 0 0 127 0" result="hardAlpha"/>
<feOffset/>
<feGaussianBlur stdDeviation="1.27484"/>
<feComposite in2="hardAlpha" operator="out"/>
<feColorMatrix type="matrix" values="0 0 0 0 1 0 0 0 0 1 0 0 0 0 1 0 0 0 0.15 0"/>
<feBlend mode="normal" in2="BackgroundImageFix" result="effect1_dropShadow_2001_511"/>
<feColorMatrix in="SourceAlpha" type="matrix" values="0 0 0 0 0 0 0 0 0 0 0 0 0 0 0 0 0 0 127 0" result="hardAlpha"/>
<feOffset dy="-0.455301"/>
<feComposite in2="hardAlpha" operator="out"/>
<feColorMatrix type="matrix" values="0 0 0 0 1 0 0 0 0 1 0 0 0 0 1 0 0 0 1 0"/>
<feBlend mode="normal" in2="effect1_dropShadow_2001_511" result="effect2_dropShadow_2001_511"/>
<feBlend mode="normal" in="SourceGraphic" in2="effect2_dropShadow_2001_511" result="shape"/>
<feColorMatrix in="SourceAlpha" type="matrix" values="0 0 0 0 0 0 0 0 0 0 0 0 0 0 0 0 0 0 127 0" result="hardAlpha"/>
<feOffset/>
<feGaussianBlur stdDeviation="1.8212"/>
<feComposite in2="hardAlpha" operator="arithmetic" k2="-1" k3="1"/>
<feColorMatrix type="matrix" values="0 0 0 0 0.854902 0 0 0 0 0.658902 0 0 0 0 0.278431 0 0 0 1 0"/>
<feBlend mode="normal" in2="shape" result="effect3_innerShadow_2001_511"/>
</filter>
<linearGradient id="paint0_linear_2001_511" x1="69.6447" y1="2.60656" x2="70.5386" y2="25.5782" gradientUnits="userSpaceOnUse">
<stop stop-color="#D9CD62"/>
<stop offset="1" stop-color="#B57639"/>
</linearGradient>
<linearGradient id="paint1_linear_2001_511" x1="89.0303" y1="9.73007" x2="60.1325" y2="26.9779" gradientUnits="userSpaceOnUse">
<stop stop-color="#7A5438"/>
<stop offset="1" stop-color="#B47749"/>
</linearGradient>
<linearGradient id="paint2_linear_2001_511" x1="90.5542" y1="26.7125" x2="91.2104" y2="43.576" gradientUnits="userSpaceOnUse">
<stop stop-color="#D9CD62"/>
<stop offset="1" stop-color="#B57639"/>
</linearGradient>
<linearGradient id="paint3_linear_2001_511" x1="99.6895" y1="89.3798" x2="131.69" y2="47.519" gradientUnits="userSpaceOnUse">
<stop stop-color="#7A5438"/>
<stop offset="1" stop-color="#B47749"/>
</linearGradient>
<linearGradient id="paint4_linear_2001_511" x1="91.9693" y1="34.0609" x2="38.6827" y2="123.709" gradientUnits="userSpaceOnUse">
<stop stop-color="#6B422C"/>
<stop offset="1" stop-color="#95653D"/>
</linearGradient>
<linearGradient id="paint5_linear_2001_511" x1="59.1522" y1="89.3838" x2="107.23" y2="83.4198" gradientUnits="userSpaceOnUse">
<stop stop-color="#BC9348"/>
<stop offset="1" stop-color="#98683C"/>
</linearGradient>
<linearGradient id="paint6_linear_2001_511" x1="64.0625" y1="60.3382" x2="73.571" y2="93.0173" gradientUnits="userSpaceOnUse">
<stop stop-color="#865F3B"/>
<stop offset="1" stop-color="#A97946"/>
</linearGradient>
<linearGradient id="paint7_linear_2001_511" x1="67.6063" y1="122.63" x2="67.6063" y2="50.2968" gradientUnits="userSpaceOnUse">
<stop stop-color="#6B422C"/>
<stop offset="1" stop-color="#95653D"/>
</linearGradient>
<linearGradient id="paint8_linear_2001_511" x1="45.4395" y1="103.963" x2="47.1895" y2="145.38" gradientUnits="userSpaceOnUse">
<stop stop-color="#764D3A"/>
<stop offset="1" stop-color="#A46B3E"/>
<stop offset="1" stop-color="#935833"/>
</linearGradient>
<linearGradient id="paint9_linear_2001_511" x1="59.7742" y1="20.2176" x2="48.8261" y2="36.3066" gradientUnits="userSpaceOnUse">
<stop stop-color="#7A5438"/>
<stop offset="1" stop-color="#B47749"/>
</linearGradient>
<linearGradient id="paint10_linear_2001_511" x1="29.594" y1="19.9643" x2="30.715" y2="48.7754" gradientUnits="userSpaceOnUse">
<stop stop-color="#D9CD62"/>
<stop offset="1" stop-color="#B57639"/>
</linearGradient>
<linearGradient id="paint11_linear_2001_511" x1="-7.64388" y1="79.4633" x2="49.5228" y2="19.3799" gradientUnits="userSpaceOnUse">
<stop stop-color="#BE944D"/>
<stop offset="1" stop-color="#724C34"/>
</linearGradient>
<linearGradient id="paint12_linear_2001_511" x1="62.2779" y1="19.652" x2="30.845" y2="107.945" gradientUnits="userSpaceOnUse">
<stop stop-color="#77472E"/>
<stop offset="1" stop-color="#D2B15D"/>
</linearGradient>
<radialGradient id="paint13_radial_2001_511" cx="0" cy="0" r="1" gradientUnits="userSpaceOnUse" gradientTransform="translate(12.8813 123.149) rotate(-57.2672) scale(99.0632 62.9281)">
<stop stop-color="#F5CD65"/>
<stop offset="1" stop-color="#F5B065" stop-opacity="0"/>
</radialGradient>
<linearGradient id="paint14_linear_2001_511" x1="43.9851" y1="98.2846" x2="77.6816" y2="37.6628" gradientUnits="userSpaceOnUse">
<stop stop-color="#F5DE66"/>
<stop offset="1" stop-color="#F5DE66" stop-opacity="0"/>
</linearGradient>
<linearGradient id="paint15_linear_2001_511" x1="12.7724" y1="87.6004" x2="11.8634" y2="44.7578" gradientUnits="userSpaceOnUse">
<stop stop-color="#8E5D3C"/>
<stop offset="1" stop-color="#CB8A48"/>
</linearGradient>
<linearGradient id="paint16_linear_2001_511" x1="18.0244" y1="77.9208" x2="-18.8614" y2="95.5522" gradientUnits="userSpaceOnUse">
<stop stop-color="#613D29"/>
<stop offset="1" stop-color="#95633C"/>
</linearGradient>
<linearGradient id="paint17_linear_2001_511" x1="27.4888" y1="73.5234" x2="17.122" y2="102.206" gradientUnits="userSpaceOnUse">
<stop stop-color="#8B5F3C"/>
<stop offset="1" stop-color="#A57348"/>
</linearGradient>
<linearGradient id="paint18_linear_2001_511" x1="29.1061" y1="95.2133" x2="7.52278" y2="120.88" gradientUnits="userSpaceOnUse">
<stop stop-color="#613D29"/>
<stop offset="1" stop-color="#95633C"/>
</linearGradient>
<linearGradient id="paint19_linear_2001_511" x1="33.1943" y1="102.725" x2="26.3176" y2="129.245" gradientUnits="userSpaceOnUse">
<stop stop-color="#8B5F3C"/>
<stop offset="1" stop-color="#A57348"/>
</linearGradient>
<clipPath id="clip0_2001_511">
<rect width="98" height="133" fill="white" transform="translate(6.93945)"/>
</clipPath>
<clipPath id="clip1_2001_511">
<rect width="99.2555" height="60.0997" fill="white" transform="matrix(-0.895176 0.445713 0.445713 0.895176 88.8516 16)"/>
</clipPath>
</defs>
</svg>
