<svg width="206" height="60" viewBox="0 0 206 60" fill="none" xmlns="http://www.w3.org/2000/svg">
<path d="M84.1277 17.187H85.628C85.628 18.4035 85.5875 19.2212 85.5064 19.6402C85.4388 20.0593 85.2631 20.4445 84.9792 20.7959C84.4791 21.4312 83.4046 21.7758 81.7556 21.8299C81.4177 21.8434 80.7419 21.8502 79.7281 21.8502C78.782 21.8502 78.0656 21.8029 77.579 21.7083C77.0924 21.6001 76.6329 21.4041 76.2004 21.1203C75.8895 20.904 75.6191 20.5932 75.3894 20.1877C75.1596 19.7687 75.0109 19.3159 74.9433 18.8293C74.7946 17.8426 74.7203 16.5518 74.7203 14.9568C74.7203 12.7807 74.7676 11.4426 74.8622 10.9425C74.9704 10.2531 75.2677 9.66515 75.7543 9.17856C76.2409 8.69197 76.8559 8.3811 77.5993 8.24593C78.3157 8.11077 79.4713 8.04319 81.0663 8.04319C81.9178 8.04319 82.5463 8.07698 82.9518 8.14456C83.3573 8.21214 83.7357 8.34055 84.0872 8.52978C84.8306 8.93527 85.2563 9.65164 85.3645 10.6789C85.405 11.0709 85.4388 11.6183 85.4658 12.3211H83.9452C83.9317 11.1587 83.8236 10.4018 83.6208 10.0504C83.4451 9.78004 83.1748 9.59757 82.8099 9.50295C82.4449 9.39482 81.8502 9.34076 81.0257 9.34076C79.1199 9.34076 77.9237 9.44213 77.4371 9.64488C77.0046 9.83411 76.7072 10.1585 76.545 10.6181C76.3963 11.0641 76.322 11.8075 76.322 12.8483C76.322 16.0111 76.3963 17.971 76.545 18.7279C76.7072 19.5659 77.0586 20.093 77.5993 20.3093C77.9778 20.458 78.8023 20.5323 80.0728 20.5323C80.8567 20.5323 81.465 20.5188 81.8975 20.4918C82.3436 20.4512 82.7288 20.3904 83.0532 20.3093C83.3911 20.2147 83.6276 20.066 83.7628 19.8633C83.8979 19.647 83.9926 19.4037 84.0466 19.1334C84.1007 18.8495 84.1277 18.4576 84.1277 17.9575V17.187ZM107.065 8.18511V21.7083H105.545V15.4231H97.6377V21.7083H96.1171V8.18511H97.6377V14.1458H105.545V8.18511H107.065ZM126.787 18.8495H119.955L118.921 21.7083H117.299L122.246 8.18511H124.395L129.443 21.7083H127.841L126.787 18.8495ZM126.341 17.6331L123.34 9.42186L120.38 17.6331H126.341ZM144.781 8.04319C146.551 8.04319 147.775 8.19187 148.45 8.48923C149.559 8.94878 150.228 10.0233 150.458 11.7129C150.512 12.2535 150.539 13.1389 150.539 14.3689C150.539 15.9638 150.525 17.0113 150.498 17.5114C150.471 18.0115 150.404 18.5184 150.295 19.032C150.052 20.2079 149.451 20.9986 148.491 21.4041C148.072 21.5798 147.626 21.6947 147.153 21.7488C146.693 21.8164 145.963 21.8502 144.963 21.8502C143.787 21.8502 142.949 21.8231 142.449 21.7691C141.963 21.715 141.503 21.5934 141.07 21.4041C140.124 20.9851 139.523 20.1944 139.266 19.032C139.158 18.5049 139.09 17.998 139.063 17.5114C139.036 17.0113 139.023 15.9705 139.023 14.3891C139.023 12.9834 139.063 11.99 139.144 11.4088C139.239 10.814 139.421 10.2599 139.692 9.74625C140.138 8.92175 140.929 8.40137 142.064 8.18511C142.632 8.09049 143.537 8.04319 144.781 8.04319ZM144.842 9.36103C143.612 9.36103 142.76 9.40158 142.287 9.48268C141.814 9.56378 141.462 9.73949 141.233 10.0098C140.773 10.564 140.543 11.6318 140.543 13.2132C140.543 15.8894 140.557 17.4844 140.584 17.998C140.611 18.5116 140.719 18.9712 140.908 19.3767C141.125 19.8633 141.469 20.1809 141.942 20.3296C142.415 20.4647 143.341 20.5323 144.72 20.5323C145.95 20.5323 146.801 20.4918 147.274 20.4107C147.748 20.3296 148.099 20.1539 148.329 19.8835C148.788 19.3294 149.018 18.2616 149.018 16.6802C149.018 14.0039 149.005 12.409 148.978 11.8954C148.951 11.3817 148.842 10.9222 148.653 10.5167C148.437 10.0301 148.092 9.71922 147.619 9.58405C147.146 9.43537 146.22 9.36103 144.842 9.36103ZM166.171 9.60433V21.7083H164.65V9.60433H160.251V8.18511H170.55V9.60433H166.171ZM182.276 8.18511V21.7083H180.756V8.18511H182.276ZM202.453 17.187H203.953C203.953 18.4035 203.913 19.2212 203.832 19.6402C203.764 20.0593 203.588 20.4445 203.304 20.7959C202.804 21.4312 201.73 21.7758 200.081 21.8299C199.743 21.8434 199.067 21.8502 198.053 21.8502C197.107 21.8502 196.391 21.8029 195.904 21.7083C195.418 21.6001 194.958 21.4041 194.525 21.1203C194.215 20.904 193.944 20.5932 193.715 20.1877C193.485 19.7687 193.336 19.3159 193.268 18.8293C193.12 17.8426 193.045 16.5518 193.045 14.9568C193.045 12.7807 193.093 11.4426 193.187 10.9425C193.295 10.2531 193.593 9.66515 194.079 9.17856C194.566 8.69197 195.181 8.3811 195.924 8.24593C196.641 8.11077 197.796 8.04319 199.391 8.04319C200.243 8.04319 200.871 8.07698 201.277 8.14456C201.682 8.21214 202.061 8.34055 202.412 8.52978C203.156 8.93527 203.581 9.65164 203.69 10.6789C203.73 11.0709 203.764 11.6183 203.791 12.3211H202.27C202.257 11.1587 202.149 10.4018 201.946 10.0504C201.77 9.78004 201.5 9.59757 201.135 9.50295C200.77 9.39482 200.175 9.34076 199.351 9.34076C197.445 9.34076 196.249 9.44213 195.762 9.64488C195.33 9.83411 195.032 10.1585 194.87 10.6181C194.721 11.0641 194.647 11.8075 194.647 12.8483C194.647 16.0111 194.721 17.971 194.87 18.7279C195.032 19.5659 195.384 20.093 195.924 20.3093C196.303 20.458 197.127 20.5323 198.398 20.5323C199.182 20.5323 199.79 20.5188 200.223 20.4918C200.669 20.4512 201.054 20.3904 201.378 20.3093C201.716 20.2147 201.953 20.066 202.088 19.8633C202.223 19.647 202.318 19.4037 202.372 19.1334C202.426 18.8495 202.453 18.4576 202.453 17.9575V17.187Z" fill="white"/>
<path d="M107.925 26.4938V53.7361H101.717V42.3C101.717 40.8569 101.853 37.3717 102.125 31.8442H101.921L100.696 35.8877C99.797 38.5833 99.1299 40.5846 98.6943 41.8916L94.3241 53.7361H88.8103L84.3992 41.9325C83.8274 40.4077 83.0922 38.243 82.1937 35.4384L81.0909 31.9259H80.8867C81.1862 37.5078 81.336 40.9658 81.336 42.3V53.7361H75.1279V26.4938H85.0936L88.7694 36.6637C89.3412 38.3519 90.2125 41.1701 91.3834 45.1182H91.6284L92.6087 41.7282C93.3166 39.2777 93.834 37.6031 94.1607 36.7046L97.7549 26.4938H107.925ZM118.791 26.4938V53.7361H112.501V26.4938H118.791ZM149.652 26.4938V53.7361H139.032L133.029 40.5438C132.593 39.5363 131.436 36.6501 129.557 31.8851H129.312C129.366 32.9742 129.394 33.6958 129.394 34.0498L129.475 36.2144C129.53 37.5759 129.557 39.019 129.557 40.5438V53.7361H123.39V26.4938H133.927L139.604 39.1143C140.285 40.6119 141.115 42.5723 142.096 44.9957L143.403 48.1814H143.648C143.484 44.3694 143.403 41.5513 143.403 39.7269V26.4938H149.652ZM154.221 53.7361V26.4938H168.067C171.743 26.4938 174.398 27.3379 176.031 29.0261C177.665 30.7142 178.482 33.4507 178.482 37.2355C178.482 41.1292 178.414 43.8657 178.278 45.445C178.142 46.997 177.856 48.2495 177.42 49.2025C176.658 50.809 175.528 51.9662 174.03 52.6742C172.56 53.3821 170.531 53.7361 167.945 53.7361H154.221ZM160.511 48.3448H167.128C169.115 48.3448 170.45 47.8138 171.13 46.7519C171.484 46.1801 171.729 45.4177 171.865 44.4647C172.002 43.5117 172.07 41.9869 172.07 39.8903C172.07 36.4323 171.77 34.2676 171.171 33.3963C170.572 32.4433 169.279 31.9668 167.291 31.9668H160.511V48.3448ZM203.094 34.7441H197.09C197.09 33.1921 196.831 32.2118 196.314 31.8034C195.796 31.3677 194.571 31.1499 192.638 31.1499C190.514 31.1499 189.125 31.3541 188.472 31.7625C187.818 32.171 187.492 33.0287 187.492 34.3357C187.492 35.8877 188.064 36.8135 189.207 37.113C189.588 37.1947 191.249 37.3308 194.19 37.5214C196.368 37.6303 197.948 37.7937 198.928 38.0115C199.908 38.2021 200.752 38.5289 201.46 38.9918C202.331 39.5636 202.944 40.3124 203.298 41.2381C203.652 42.1639 203.829 43.5253 203.829 45.3224C203.829 48.5899 203.23 50.7818 202.032 51.8981C201.188 52.6878 200.099 53.2324 198.764 53.5319C197.457 53.8042 195.429 53.9403 192.679 53.9403C189.357 53.9403 186.961 53.7497 185.49 53.3685C184.047 52.9601 182.985 52.2113 182.305 51.1221C181.869 50.4686 181.57 49.7062 181.406 48.8349C181.243 47.9636 181.161 46.6839 181.161 44.9957H187.165V45.4858C187.165 46.8472 187.451 47.8002 188.023 48.3448C188.349 48.6171 188.785 48.7941 189.33 48.8758C189.901 48.9302 191.113 48.9575 192.965 48.9575C194.19 48.9575 195.034 48.9166 195.497 48.8349C195.987 48.7532 196.409 48.5763 196.763 48.304C197.335 47.8411 197.621 46.9289 197.621 45.5675C197.621 44.3694 197.376 43.607 196.886 43.2803C196.559 43.008 196.164 42.8446 195.701 42.7902C195.238 42.7085 193.768 42.5859 191.29 42.4226C189.057 42.2864 187.478 42.1503 186.552 42.0141C185.654 41.8508 184.864 41.5921 184.183 41.2381C183.122 40.7208 182.359 39.9175 181.896 38.8284C181.433 37.7392 181.202 36.2281 181.202 34.2948C181.202 31.1091 181.937 28.9852 183.407 27.9233C184.279 27.297 185.368 26.875 186.675 26.6572C187.982 26.4121 189.901 26.2896 192.434 26.2896C195.211 26.2896 197.253 26.453 198.56 26.7797C199.894 27.0792 200.915 27.6374 201.623 28.4543C202.631 29.6523 203.135 31.3813 203.135 33.6413C203.135 34.077 203.121 34.4446 203.094 34.7441Z" fill="white"/>
<g clip-path="url(#clip0_2009_329)">
<path d="M28.6912 16.0237C28.4933 17.0129 28.2262 18.1999 28.0482 19.377C27.9189 19.9483 28.0169 20.5475 28.3215 21.0478C28.6261 21.5481 29.1134 21.9102 29.6803 22.0576C30.1256 22.2511 30.6137 22.3246 31.0962 22.2708C31.5786 22.217 32.0386 22.0378 32.4302 21.751C32.8301 21.477 33.1154 21.0658 33.2321 20.5954C33.3488 20.1249 33.2887 19.628 33.0633 19.1989C30.7882 13.4716 33.3996 7.99164 34.4778 2.4424C34.8537 0.464056 36.5254 0.0189277 38.8994 0.384921C45.873 1.46312 48.4548 5.33077 45.3784 10.4942C43.9639 12.8682 42.3021 15.1631 40.8184 17.5173C40.2645 18.3878 38.5928 19.4066 39.8292 20.2474C41.3229 21.2366 42.4011 19.6836 43.4694 19.011C46.0511 17.369 48.5438 15.6577 51.0662 13.9662C53.826 12.1264 55.8043 12.7298 57.199 15.2126C57.4661 15.6973 57.8123 16.1424 58.0992 16.6271C61.6701 22.6808 61.0667 23.8282 53.1533 26.1924C52.6884 26.321 52.1642 26.4199 51.7487 26.5782C49.4637 27.3398 46.8029 27.9729 46.8029 30.426C46.8029 33.1067 49.8693 33.1957 52.1246 33.7496C61.4525 36.0346 62.5999 38.7944 57.0012 45.2141C55.2306 47.2518 53.4797 47.7662 50.9376 46.134C47.7129 44.0766 44.4388 42.0982 41.8867 39.4472C41.1053 38.646 40.1754 37.5184 38.6917 38.369C37.2079 39.2197 38.0091 40.3474 38.6323 41.2376C40.9569 44.7294 43.4001 48.1618 45.6752 51.6932C46.6644 53.2363 47.5546 54.9871 45.418 56.372C43.1033 57.8755 40.5414 59.201 37.4156 59.0526C35.9121 58.9834 35.4373 57.6875 35.1801 56.6885C33.8348 51.6041 30.3925 46.7275 32.8753 41.2475C33.1558 40.6714 33.1966 40.0077 32.989 39.4016C32.7814 38.7954 32.3422 38.2962 31.7675 38.013C31.4178 37.8087 31.0201 37.7011 30.6151 37.7011C30.2101 37.7011 29.8124 37.8087 29.4627 38.013C29.1698 38.1346 28.9071 38.3192 28.6933 38.5535C28.4795 38.7879 28.3198 39.0663 28.2254 39.3692C28.1311 39.6721 28.1044 39.992 28.1472 40.3063C28.1901 40.6206 28.3016 40.9216 28.4736 41.1882C30.9762 46.134 28.6615 50.8029 27.5635 55.5509C26.9898 58.0733 25.4664 59.656 21.7373 58.7559C17.2365 57.6678 14.9219 55.4718 15.8022 52.6724C16.8823 49.8392 18.3612 47.1745 20.1942 44.7591C20.5898 44.1755 21.0152 43.6116 21.4208 43.0379C22.41 41.7025 24.4377 40.0704 22.5583 38.8537C20.2931 37.3898 19.3336 39.8429 18.2158 40.9013C15.7888 43.1725 13.0713 45.1117 10.1343 46.6682C9.67994 46.9964 9.16103 47.2244 8.61192 47.3369C8.06281 47.4495 7.49608 47.4441 6.94922 47.3211C5.13904 46.7572 1.21201 40.6837 1.24169 38.3591C1.24169 35.54 4.20921 35.174 6.57333 34.4025C7.94827 33.9672 9.38256 33.6309 10.7674 33.2254C12.3501 32.7605 14.002 32.2362 13.9031 30.5843C13.8066 29.8567 13.4953 29.1743 13.009 28.6246C12.5226 28.0748 11.8834 27.6826 11.1729 27.4981C9.08578 26.7265 6.87005 26.1726 4.75323 25.4604C1.39005 24.3228 -0.0937176 22.4038 1.09329 19.4561C1.24166 19.0802 1.33069 18.6846 1.46918 18.3087C3.89264 11.5526 5.36653 11.1867 12.1918 15.6874C14.3482 17.1118 16.4551 18.5856 18.6115 20.0101C18.9145 20.2774 19.286 20.4551 19.6844 20.5233C20.0827 20.5914 20.4922 20.5473 20.8668 20.3958C22.0044 19.7628 21.2625 18.9912 20.7877 18.3186C18.8588 15.5588 16.7123 12.8781 15.0208 10.0293C12.0533 4.99445 16.01 0.483829 22.9935 0.592638C25.4566 0.592638 25.961 2.00716 26.4062 3.40189C27.8306 7.4476 27.9888 11.6911 28.6912 16.0237ZM28.0581 30.0897C27.791 27.9135 26.9008 25.9846 23.7058 25.678C22.5321 25.6457 21.3926 26.0752 20.5324 26.8744C19.6723 27.6735 19.1601 28.7783 19.1061 29.9512C19.1061 32.068 22.0143 34.4025 24.4872 34.175C27.4349 33.9277 27.9196 32.1274 28.0878 30.1194L28.0581 30.0897ZM32.0148 29.4269C31.9405 30.0252 31.9979 30.6324 32.1831 31.2061C32.3682 31.7798 32.6766 32.306 33.0865 32.748C33.4964 33.19 33.998 33.537 34.5562 33.7647C35.1144 33.9924 35.7156 34.0953 36.3177 34.0662C39.0478 34.0662 40.5216 32.7605 40.9371 30.703C41.3921 28.4378 39.0873 25.7571 36.5847 25.7571C33.4194 25.7571 32.6478 27.7256 32.0049 29.4566L32.0148 29.4269Z" fill="#FF274E"/>
</g>
<defs>
<clipPath id="clip0_2009_329">
<rect width="59.7162" height="58.7963" fill="white" transform="translate(0.708008 0.275879)"/>
</clipPath>
</defs>
</svg>
